<?xml version="1.0"?>
<!DOCTYPE svg PUBLIC "-//W3C//DTD SVG 1.1//EN" "http://www.w3.org/Graphics/SVG/1.1/DTD/svg11.dtd">
<svg width="512px" height="512px" viewBox="0 0 512 512" xmlns="http://www.w3.org/2000/svg" version="1.1">
<desc>UV-Map from Object: Blade. Exported from Blender3D with UV Exportscript</desc>
<rect x="0" y="0" width="512" height="512" fill="none" stroke="blue" stroke-width="1px" />
<g style="fill:#F2DAF2; stroke:black; stroke-width:1px;">
<polygon points="239.196,36.002 254.485,33.063 253.109,31.813 238.828,34.434 " />
<polygon points="184.468,31.607 183.086,32.849 198.347,35.883 198.730,34.317 " />
<polygon points="298.712,36.011 314.360,38.713 314.751,37.155 300.083,34.714 " />
<polygon points="354.794,36.714 355.219,38.263 370.803,35.217 369.404,33.950 " />
<polygon points="218.756,41.833 229.777,38.361 229.517,37.002 218.760,40.318 " />
<polygon points="208.026,36.935 207.755,38.292 218.756,41.833 218.760,40.318 " />
<polygon points="229.777,38.361 239.196,36.002 238.828,34.434 229.517,37.002 " />
<polygon points="198.730,34.317 198.347,35.883 207.755,38.292 208.026,36.935 " />
<polygon points="314.360,38.713 323.760,41.011 324.083,39.662 314.751,37.155 " />
<polygon points="345.519,39.426 345.872,40.768 355.219,38.263 354.794,36.714 " />
<polygon points="323.760,41.011 334.854,44.395 334.837,42.864 324.083,39.662 " />
<polygon points="334.837,42.864 334.854,44.395 345.872,40.768 345.519,39.426 " />
<polygon points="301.993,74.614 302.878,160.762 314.193,160.773 315.689,74.898 " />
<polygon points="358.073,160.290 369.385,160.030 368.373,73.883 354.687,74.468 " />
<polygon points="238.204,72.095 240.410,158.091 251.751,157.987 251.908,71.646 " />
<polygon points="185.066,157.787 196.406,157.959 199.128,71.979 185.427,71.446 " />
<polygon points="324.469,75.252 325.166,160.634 336.133,160.532 335.191,74.940 " />
<polygon points="336.133,160.532 347.099,160.392 345.917,75.016 335.191,74.940 " />
<polygon points="315.689,74.898 314.193,160.773 325.166,160.634 324.469,75.252 " />
<polygon points="347.099,160.392 358.073,160.290 354.687,74.468 345.917,75.016 " />
<polygon points="229.405,158.041 229.395,72.538 218.665,72.313 218.408,158.028 " />
<polygon points="218.665,72.313 207.934,72.474 207.411,157.975 218.408,158.028 " />
<polygon points="240.410,158.091 238.204,72.095 229.395,72.538 229.405,158.041 " />
<polygon points="207.934,72.474 199.128,71.979 196.406,157.959 207.411,157.975 " />
<polygon points="302.878,160.762 304.568,246.969 316.889,246.744 314.193,160.773 " />
<polygon points="357.270,246.299 369.593,246.253 369.385,160.030 358.073,160.290 " />
<polygon points="304.568,246.969 305.094,310.632 319.444,310.347 316.889,246.744 " />
<polygon points="356.115,309.943 370.468,309.913 369.593,246.253 357.270,246.299 " />
<polygon points="240.410,158.091 238.404,244.299 250.753,244.426 251.751,157.987 " />
<polygon points="185.544,244.230 197.894,244.177 196.406,157.959 185.066,157.787 " />
<polygon points="238.404,244.299 236.348,307.975 250.713,308.150 250.753,244.426 " />
<polygon points="185.200,307.952 199.566,307.864 197.894,244.177 185.544,244.230 " />
<polygon points="325.166,160.634 326.189,246.271 337.077,246.288 336.133,160.532 " />
<polygon points="337.077,246.288 347.961,246.031 347.099,160.392 336.133,160.532 " />
<polygon points="326.189,246.271 327.478,309.983 337.776,309.778 337.077,246.288 " />
<polygon points="337.776,309.778 348.076,309.756 347.961,246.031 337.077,246.288 " />
<polygon points="314.193,160.773 316.889,246.744 326.189,246.271 325.166,160.634 " />
<polygon points="347.961,246.031 357.270,246.299 358.073,160.290 347.099,160.392 " />
<polygon points="316.889,246.744 319.444,310.347 327.478,309.983 326.189,246.271 " />
<polygon points="348.076,309.756 356.115,309.943 357.270,246.299 347.961,246.031 " />
<polygon points="228.305,307.663 229.084,243.905 218.150,244.010 217.958,307.539 " />
<polygon points="218.150,244.010 207.216,243.839 207.611,307.601 217.958,307.539 " />
<polygon points="229.084,243.905 229.405,158.041 218.408,158.028 218.150,244.010 " />
<polygon points="218.408,158.028 207.411,157.975 207.216,243.839 218.150,244.010 " />
<polygon points="236.348,307.975 238.404,244.299 229.084,243.905 228.305,307.663 " />
<polygon points="207.216,243.839 197.894,244.177 199.566,307.864 207.611,307.601 " />
<polygon points="238.404,244.299 240.410,158.091 229.405,158.041 229.084,243.905 " />
<polygon points="207.411,157.975 196.406,157.959 197.894,244.177 207.216,243.839 " />
<polygon points="236.348,307.975 228.305,307.663 217.805,358.324 217.729,383.483 " />
<polygon points="217.805,358.324 207.611,307.601 199.566,307.864 217.729,383.483 " />
<polygon points="228.305,307.663 217.958,307.539 217.886,331.460 217.805,358.324 " />
<polygon points="217.886,331.460 217.958,307.539 207.611,307.601 217.805,358.324 " />
<polygon points="327.478,309.983 319.444,310.347 338.610,385.581 338.333,360.457 " />
<polygon points="338.610,385.581 356.115,309.943 348.076,309.756 338.333,360.457 " />
<polygon points="337.776,309.778 327.478,309.983 338.333,360.457 338.039,333.671 " />
<polygon points="338.333,360.457 348.076,309.756 337.776,309.778 338.039,333.671 " />
<polygon points="319.444,310.347 305.094,310.632 339.828,496.283 338.610,385.581 " />
<polygon points="339.828,496.283 370.468,309.913 356.115,309.943 338.610,385.581 " />
<polygon points="250.713,308.150 236.348,307.975 217.729,383.483 217.394,494.352 " />
<polygon points="217.729,383.483 199.566,307.864 185.200,307.952 217.394,494.352 " />
<polygon points="254.485,33.063 255.574,31.171 253.966,30.250 253.109,31.813 " />
<polygon points="255.574,31.171 261.154,21.100 258.780,19.873 253.966,30.250 " />
<polygon points="176.489,20.848 182.008,30.951 183.621,30.040 178.869,19.636 " />
<polygon points="182.008,30.951 183.086,32.849 184.468,31.607 183.621,30.040 " />
<polygon points="253.109,31.813 253.966,30.250 239.054,32.551 238.828,34.434 " />
<polygon points="253.966,30.250 258.780,19.873 238.449,14.191 239.054,32.551 " />
<polygon points="178.869,19.636 183.621,30.040 198.515,32.433 199.231,14.075 " />
<polygon points="183.621,30.040 184.468,31.607 198.730,34.317 198.515,32.433 " />
<polygon points="291.888,23.944 297.705,34.280 299.291,33.208 294.417,22.630 " />
<polygon points="297.705,34.280 298.712,36.011 300.083,34.714 299.291,33.208 " />
<polygon points="370.803,35.217 371.772,33.464 370.162,32.427 369.404,33.950 " />
<polygon points="371.772,33.464 377.360,23.003 374.802,21.745 370.162,32.427 " />
<polygon points="314.751,37.155 314.500,35.283 299.291,33.208 300.083,34.714 " />
<polygon points="314.500,35.283 314.932,16.794 294.417,22.630 299.291,33.208 " />
<polygon points="354.164,16.361 355.003,34.837 370.162,32.427 374.802,21.745 " />
<polygon points="355.003,34.837 354.794,36.714 369.404,33.950 370.162,32.427 " />
<polygon points="229.517,37.002 229.624,35.393 218.766,38.599 218.760,40.318 " />
<polygon points="229.624,35.393 230.236,13.993 218.840,13.744 218.766,38.599 " />
<polygon points="207.444,13.927 207.928,35.325 218.766,38.599 218.840,13.744 " />
<polygon points="207.928,35.325 208.026,36.935 218.760,40.318 218.766,38.599 " />
<polygon points="238.828,34.434 239.054,32.551 229.624,35.393 229.517,37.002 " />
<polygon points="239.054,32.551 238.449,14.191 230.236,13.993 229.624,35.393 " />
<polygon points="199.231,14.075 198.515,32.433 207.928,35.325 207.444,13.927 " />
<polygon points="198.515,32.433 198.730,34.317 208.026,36.935 207.928,35.325 " />
<polygon points="324.083,39.662 323.957,38.047 314.500,35.283 314.751,37.155 " />
<polygon points="323.957,38.047 323.167,16.567 314.932,16.794 314.500,35.283 " />
<polygon points="345.926,16.316 345.609,37.808 355.003,34.837 354.164,16.361 " />
<polygon points="345.609,37.808 345.519,39.426 354.794,36.714 355.003,34.837 " />
<polygon points="334.837,42.864 334.819,41.147 323.957,38.047 324.083,39.662 " />
<polygon points="334.819,41.147 334.544,16.242 323.167,16.567 323.957,38.047 " />
<polygon points="334.544,16.242 334.819,41.147 345.609,37.808 345.926,16.316 " />
<polygon points="334.819,41.147 334.837,42.864 345.519,39.426 345.609,37.808 " />
<polygon points="298.712,36.011 299.112,38.209 314.902,41.285 314.360,38.713 " />
<polygon points="299.112,38.209 301.993,74.614 315.689,74.898 314.902,41.285 " />
<polygon points="368.373,73.883 370.451,37.423 354.734,40.847 354.687,74.468 " />
<polygon points="370.451,37.423 370.803,35.217 355.219,38.263 354.734,40.847 " />
<polygon points="251.908,71.646 254.130,35.242 238.684,38.540 238.204,72.095 " />
<polygon points="254.130,35.242 254.485,33.063 239.196,36.002 238.684,38.540 " />
<polygon points="183.086,32.849 183.427,35.031 198.845,38.422 198.347,35.883 " />
<polygon points="183.427,35.031 185.427,71.446 199.128,71.979 198.845,38.422 " />
<polygon points="323.760,41.011 323.844,43.719 334.881,46.860 334.854,44.395 " />
<polygon points="323.844,43.719 324.469,75.252 335.191,74.940 334.881,46.860 " />
<polygon points="345.917,75.016 345.847,43.476 334.881,46.860 335.191,74.940 " />
<polygon points="345.847,43.476 345.872,40.768 334.854,44.395 334.881,46.860 " />
<polygon points="314.360,38.713 314.902,41.285 323.844,43.719 323.760,41.011 " />
<polygon points="314.902,41.285 315.689,74.898 324.469,75.252 323.844,43.719 " />
<polygon points="354.687,74.468 354.734,40.847 345.847,43.476 345.917,75.016 " />
<polygon points="354.734,40.847 355.219,38.263 345.872,40.768 345.847,43.476 " />
<polygon points="229.395,72.538 229.724,41.066 218.748,44.289 218.665,72.313 " />
<polygon points="229.724,41.066 229.777,38.361 218.756,41.833 218.748,44.289 " />
<polygon points="207.755,38.292 207.792,40.998 218.748,44.289 218.756,41.833 " />
<polygon points="207.792,40.998 207.934,72.474 218.665,72.313 218.748,44.289 " />
<polygon points="238.204,72.095 238.684,38.540 229.724,41.066 229.395,72.538 " />
<polygon points="238.684,38.540 239.196,36.002 229.777,38.361 229.724,41.066 " />
<polygon points="198.347,35.883 198.845,38.422 207.792,40.998 207.755,38.292 " />
<polygon points="198.845,38.422 199.128,71.979 207.934,72.474 207.792,40.998 " />
</g>
</svg>