<?xml version="1.0"?>
<!DOCTYPE svg PUBLIC "-//W3C//DTD SVG 1.1//EN" "http://www.w3.org/Graphics/SVG/1.1/DTD/svg11.dtd">
<svg width="512px" height="512px" viewBox="0 0 512 512" xmlns="http://www.w3.org/2000/svg" version="1.1">
<desc>UV-Map from Object: Hilt. Exported from Blender3D with UV Exportscript</desc>
<rect x="0" y="0" width="512" height="512" fill="none" stroke="blue" stroke-width="1px" />
<g style="fill:#F2DAF2; stroke:black; stroke-width:1px;">
<polygon points="69.826,43.186 54.730,36.539 61.411,81.761 77.160,81.703 " />
<polygon points="61.411,81.761 55.065,127.032 70.111,120.273 77.160,81.703 " />
<polygon points="75.823,250.946 60.540,251.383 57.008,291.840 71.421,283.034 " />
<polygon points="54.700,211.194 60.540,251.383 75.823,250.946 69.593,219.161 " />
<polygon points="18.095,321.898 27.188,307.209 17.821,252.605 0.000,253.115 " />
<polygon points="17.821,252.605 24.050,197.555 14.131,183.410 0.000,253.115 " />
<polygon points="27.188,307.209 35.130,291.407 35.065,252.112 17.821,252.605 " />
<polygon points="35.065,252.112 32.882,212.877 24.050,197.555 17.821,252.605 " />
<polygon points="57.008,291.840 53.733,307.924 72.322,301.502 71.421,283.034 " />
<polygon points="69.436,200.672 50.510,195.323 54.700,211.194 69.593,219.161 " />
<polygon points="53.733,307.924 52.125,329.296 77.205,322.220 72.322,301.502 " />
<polygon points="73.127,179.708 47.683,174.078 50.510,195.323 69.436,200.672 " />
<polygon points="34.007,37.146 25.853,23.417 17.499,81.924 33.994,81.863 " />
<polygon points="17.499,81.924 26.286,140.366 34.338,126.578 33.994,81.863 " />
<polygon points="25.853,23.417 18.112,13.928 0.000,81.989 17.499,81.924 " />
<polygon points="0.000,81.989 18.615,149.912 26.286,140.366 17.499,81.924 " />
<polygon points="50.217,3.616 50.695,21.977 68.692,26.727 75.255,9.353 " />
<polygon points="69.099,136.740 51.137,141.623 50.795,159.987 75.790,154.066 " />
<polygon points="50.695,21.977 54.730,36.539 69.826,43.186 68.692,26.727 " />
<polygon points="70.111,120.273 55.065,127.032 51.137,141.623 69.099,136.740 " />
<polygon points="98.895,50.846 100.038,76.727 103.156,76.645 102.389,51.610 " />
<polygon points="103.193,86.568 100.074,86.510 99.123,112.399 102.611,111.608 " />
<polygon points="108.705,30.915 98.895,50.846 102.389,51.610 111.462,32.226 " />
<polygon points="102.611,111.608 99.123,112.399 109.080,132.257 111.827,130.927 " />
<polygon points="101.016,255.556 101.390,275.535 104.854,274.955 104.377,255.490 " />
<polygon points="103.434,225.315 99.942,224.935 100.712,244.902 104.070,244.776 " />
<polygon points="101.390,275.535 109.602,298.537 112.204,297.640 104.854,274.955 " />
<polygon points="109.475,202.247 106.826,201.500 99.942,224.935 103.434,225.315 " />
<polygon points="100.856,250.229 101.016,255.556 104.377,255.490 104.337,250.130 " />
<polygon points="104.070,244.776 100.712,244.902 100.856,250.229 104.337,250.130 " />
<polygon points="100.038,76.727 100.119,81.618 103.324,81.606 103.156,76.645 " />
<polygon points="103.324,81.606 100.119,81.618 100.074,86.510 103.193,86.568 " />
<polygon points="267.045,35.003 262.622,74.906 281.829,74.024 283.239,34.461 " />
<polygon points="281.954,87.163 262.794,86.785 265.988,123.564 283.345,124.329 " />
<polygon points="256.375,10.199 267.045,35.003 283.239,34.461 277.481,1.620 " />
<polygon points="283.345,124.329 265.988,123.564 257.771,151.442 278.766,159.058 " />
<polygon points="276.990,251.566 282.846,293.227 300.233,285.944 297.314,251.549 " />
<polygon points="297.864,203.177 280.090,196.900 276.626,238.827 296.917,237.682 " />
<polygon points="282.846,293.227 275.775,321.997 298.683,329.296 300.233,285.944 " />
<polygon points="293.838,159.987 271.386,168.582 280.090,196.900 297.864,203.177 " />
<polygon points="276.645,245.201 276.990,251.566 297.314,251.549 296.940,244.620 " />
<polygon points="296.917,237.682 276.626,238.827 276.645,245.201 296.940,244.620 " />
<polygon points="262.622,74.906 262.602,80.844 281.829,80.596 281.829,74.024 " />
<polygon points="281.829,80.596 262.602,80.844 262.794,86.785 281.954,87.163 " />
<polygon points="281.829,74.024 281.829,80.596 298.106,80.467 297.984,73.972 " />
<polygon points="298.106,80.467 281.829,80.596 281.954,87.163 298.079,86.966 " />
<polygon points="296.940,244.620 297.314,251.549 313.742,250.798 313.607,244.143 " />
<polygon points="313.361,237.492 296.917,237.682 296.940,244.620 313.607,244.143 " />
<polygon points="300.233,285.944 298.683,329.296 322.483,327.128 315.006,285.539 " />
<polygon points="317.721,160.791 293.838,159.987 297.864,203.177 312.636,202.736 " />
<polygon points="297.314,251.549 300.233,285.944 315.006,285.539 313.742,250.798 " />
<polygon points="312.636,202.736 297.864,203.177 296.917,237.682 313.361,237.492 " />
<polygon points="277.481,1.620 283.239,34.461 298.092,34.849 302.677,0.000 " />
<polygon points="299.144,123.760 283.345,124.329 278.766,159.058 303.580,159.987 " />
<polygon points="283.239,34.461 281.829,74.024 297.984,73.972 298.092,34.849 " />
<polygon points="298.079,86.966 281.954,87.163 283.345,124.329 299.144,123.760 " />
<polygon points="298.092,34.849 297.984,73.972 314.805,73.998 312.080,34.718 " />
<polygon points="314.902,86.687 298.079,86.966 299.144,123.760 314.191,123.545 " />
<polygon points="302.677,0.000 298.092,34.849 312.080,34.718 325.279,8.513 " />
<polygon points="314.191,123.545 299.144,123.760 303.580,159.987 325.880,152.511 " />
<polygon points="313.742,250.798 315.006,285.539 328.735,285.455 330.849,250.159 " />
<polygon points="326.346,202.035 312.636,202.736 313.361,237.492 330.476,237.151 " />
<polygon points="315.006,285.539 322.483,327.128 344.037,318.955 328.735,285.455 " />
<polygon points="339.705,167.717 317.721,160.791 312.636,202.736 326.346,202.035 " />
<polygon points="313.607,244.143 313.742,250.798 330.849,250.159 330.817,243.650 " />
<polygon points="330.476,237.151 313.361,237.492 313.607,244.143 330.817,243.650 " />
<polygon points="297.984,73.972 298.106,80.467 315.014,80.341 314.805,73.998 " />
<polygon points="315.014,80.341 298.106,80.467 298.079,86.966 314.902,86.687 " />
<polygon points="343.671,48.176 350.793,77.195 355.063,78.345 353.282,52.286 " />
<polygon points="355.105,81.511 350.860,82.772 344.513,112.073 354.052,107.685 " />
<polygon points="356.945,37.877 343.671,48.176 353.282,52.286 361.254,43.507 " />
<polygon points="354.052,107.685 344.513,112.073 358.152,122.079 362.324,116.271 " />
<polygon points="355.317,245.424 359.864,269.017 370.172,268.203 362.883,244.747 " />
<polygon points="368.700,216.883 358.364,216.662 355.175,240.477 362.768,240.720 " />
<polygon points="359.864,269.017 372.060,284.513 377.443,279.032 370.172,268.203 " />
<polygon points="375.335,205.659 369.650,200.496 358.364,216.662 368.700,216.883 " />
<polygon points="353.108,243.012 355.317,245.424 362.883,244.747 360.441,242.802 " />
<polygon points="362.768,240.720 355.175,240.477 353.108,243.012 360.441,242.802 " />
<polygon points="350.793,77.195 350.829,79.982 355.064,79.928 355.063,78.345 " />
<polygon points="355.064,79.928 350.829,79.982 350.860,82.772 355.105,81.511 " />
<polygon points="355.063,78.345 355.064,79.928 359.737,79.865 359.737,78.813 " />
<polygon points="359.737,79.865 355.064,79.928 355.105,81.511 359.766,80.916 " />
<polygon points="360.441,242.802 362.883,244.747 371.485,244.177 370.927,242.502 " />
<polygon points="371.388,240.798 362.768,240.720 360.441,242.802 370.927,242.502 " />
<polygon points="370.172,268.203 377.443,279.032 381.489,275.383 376.598,265.659 " />
<polygon points="379.582,209.069 375.335,205.659 368.700,216.883 375.260,219.053 " />
<polygon points="362.883,244.747 370.172,268.203 376.598,265.659 371.485,244.177 " />
<polygon points="375.260,219.053 368.700,216.883 362.768,240.720 371.388,240.798 " />
<polygon points="361.254,43.507 353.282,52.286 360.872,55.375 365.332,45.977 " />
<polygon points="361.579,104.365 354.052,107.685 362.324,116.271 366.344,113.661 " />
<polygon points="353.282,52.286 355.063,78.345 359.737,78.813 360.872,55.375 " />
<polygon points="359.766,80.916 355.105,81.511 354.052,107.685 361.579,104.365 " />
<polygon points="360.872,55.375 359.737,78.813 364.579,78.861 365.803,56.855 " />
<polygon points="364.606,80.732 359.766,80.916 361.579,104.365 366.478,102.733 " />
<polygon points="365.332,45.977 360.872,55.375 365.803,56.855 368.915,47.217 " />
<polygon points="366.478,102.733 361.579,104.365 366.344,113.661 369.899,112.303 " />
<polygon points="371.485,244.177 376.598,265.659 381.099,263.865 376.040,243.871 " />
<polygon points="379.857,220.582 375.260,219.053 371.388,240.798 375.954,240.842 " />
<polygon points="376.598,265.659 381.489,275.383 385.067,273.820 381.099,263.865 " />
<polygon points="383.241,210.423 379.582,209.069 375.260,219.053 379.857,220.582 " />
<polygon points="370.927,242.502 371.485,244.177 376.040,243.871 376.360,242.347 " />
<polygon points="375.954,240.842 371.388,240.798 370.927,242.502 376.360,242.347 " />
<polygon points="359.737,78.813 359.737,79.865 364.584,79.797 364.579,78.861 " />
<polygon points="364.584,79.797 359.737,79.865 359.766,80.916 364.606,80.732 " />
<polygon points="364.579,78.861 364.584,79.797 368.475,79.740 368.467,78.675 " />
<polygon points="368.475,79.740 364.584,79.797 364.606,80.732 368.499,80.806 " />
<polygon points="376.360,242.347 376.040,243.871 381.305,243.531 381.548,242.199 " />
<polygon points="381.230,240.884 375.954,240.842 376.360,242.347 381.548,242.199 " />
<polygon points="381.099,263.865 385.067,273.820 388.839,273.393 384.983,262.634 " />
<polygon points="387.027,210.632 383.241,210.423 379.857,220.582 383.805,221.586 " />
<polygon points="376.040,243.871 381.099,263.865 384.983,262.634 381.305,243.531 " />
<polygon points="383.805,221.586 379.857,220.582 375.954,240.842 381.230,240.884 " />
<polygon points="368.915,47.217 365.803,56.855 370.309,57.961 372.672,48.168 " />
<polygon points="370.960,101.488 366.478,102.733 369.899,112.303 373.634,111.230 " />
<polygon points="365.803,56.855 364.579,78.861 368.467,78.675 370.309,57.961 " />
<polygon points="368.499,80.806 364.606,80.732 366.478,102.733 370.960,101.488 " />
<polygon points="370.309,57.961 368.467,78.675 376.071,78.489 377.710,59.831 " />
<polygon points="376.105,80.766 368.499,80.806 370.960,101.488 378.313,99.386 " />
<polygon points="372.672,48.168 370.309,57.961 377.710,59.831 382.758,52.195 " />
<polygon points="378.313,99.386 370.960,101.488 373.634,111.230 383.609,106.873 " />
<polygon points="381.305,243.531 384.983,262.634 392.636,260.096 388.544,243.167 " />
<polygon points="391.595,223.667 383.805,221.586 381.230,240.884 388.480,240.841 " />
<polygon points="384.983,262.634 388.839,273.393 397.943,269.116 392.636,260.096 " />
<polygon points="396.346,214.373 387.027,210.632 383.805,221.586 391.595,223.667 " />
<polygon points="381.548,242.199 381.305,243.531 388.544,243.167 388.202,242.012 " />
<polygon points="388.480,240.841 381.230,240.884 381.548,242.199 388.202,242.012 " />
<polygon points="368.467,78.675 368.475,79.740 376.082,79.628 376.071,78.489 " />
<polygon points="376.082,79.628 368.475,79.740 368.499,80.806 376.105,80.766 " />
<polygon points="376.071,78.489 376.082,79.628 382.214,79.535 382.195,78.678 " />
<polygon points="382.214,79.535 376.082,79.628 376.105,80.766 382.221,80.392 " />
<polygon points="388.202,242.012 388.544,243.167 395.114,242.747 394.440,241.845 " />
<polygon points="395.068,240.908 388.480,240.841 388.202,242.012 394.440,241.845 " />
<polygon points="392.636,260.096 397.943,269.116 401.955,264.626 397.755,258.411 " />
<polygon points="400.604,218.610 396.346,214.373 391.595,223.667 396.809,225.040 " />
<polygon points="388.544,243.167 392.636,260.096 397.755,258.411 395.114,242.747 " />
<polygon points="396.809,225.040 391.595,223.667 388.480,240.841 395.068,240.908 " />
<polygon points="382.758,52.195 377.710,59.831 383.330,61.358 387.832,56.490 " />
<polygon points="383.891,97.683 378.313,99.386 383.609,106.873 388.550,102.412 " />
<polygon points="377.710,59.831 376.071,78.489 382.195,78.678 383.330,61.358 " />
<polygon points="382.221,80.392 376.105,80.766 378.313,99.386 383.891,97.683 " />
<polygon points="390.792,76.855 390.893,79.401 420.587,78.933 " />
<polygon points="420.587,78.933 390.893,79.401 390.872,81.949 " />
<polygon points="403.881,241.547 403.928,244.221 434.694,240.418 " />
<polygon points="434.694,240.418 403.667,238.877 403.881,241.547 " />
<polygon points="405.182,255.333 407.463,259.693 434.694,240.418 " />
<polygon points="434.694,240.418 406.353,223.181 404.352,227.647 " />
<polygon points="403.928,244.221 405.182,255.333 434.694,240.418 " />
<polygon points="434.694,240.418 404.352,227.647 403.667,238.877 " />
<polygon points="393.717,61.385 391.064,64.918 420.587,78.933 " />
<polygon points="420.587,78.933 391.517,93.878 394.282,97.327 " />
<polygon points="391.064,64.918 390.792,76.855 420.587,78.933 " />
<polygon points="420.587,78.933 390.872,81.949 391.517,93.878 " />
<polygon points="169.961,81.351 199.878,81.223 199.843,76.872 169.947,77.085 " />
<polygon points="199.882,85.574 199.878,81.223 169.961,81.351 169.982,85.618 " />
<polygon points="199.878,81.223 231.201,81.069 231.237,76.466 199.843,76.872 " />
<polygon points="231.278,85.671 231.201,81.069 199.878,81.223 199.882,85.574 " />
<polygon points="176.651,252.759 209.435,251.967 209.321,247.127 176.516,248.065 " />
<polygon points="209.321,247.127 209.158,242.288 176.383,243.371 176.516,248.065 " />
<polygon points="209.435,251.967 244.472,251.237 244.314,246.126 209.321,247.127 " />
<polygon points="244.314,246.126 244.179,241.015 209.158,242.288 209.321,247.127 " />
<polygon points="177.496,292.122 208.169,292.357 209.387,269.843 177.091,269.880 " />
<polygon points="208.089,224.444 205.586,202.037 174.976,204.024 175.843,226.253 " />
<polygon points="208.169,292.357 238.130,296.168 245.243,271.301 209.387,269.843 " />
<polygon points="243.803,220.940 235.280,196.520 205.586,202.037 208.089,224.444 " />
<polygon points="177.091,269.880 209.387,269.843 209.435,251.967 176.651,252.759 " />
<polygon points="209.158,242.288 208.089,224.444 175.843,226.253 176.383,243.371 " />
<polygon points="209.387,269.843 245.243,271.301 244.472,251.237 209.435,251.967 " />
<polygon points="244.179,241.015 243.803,220.940 208.089,224.444 209.158,242.288 " />
<polygon points="169.872,56.220 199.189,55.267 197.147,37.209 169.672,38.415 " />
<polygon points="197.513,125.318 199.405,107.213 170.068,106.494 170.002,124.312 " />
<polygon points="199.189,55.267 233.175,51.150 223.702,32.438 197.147,37.209 " />
<polygon points="224.196,129.874 233.403,111.021 199.405,107.213 197.513,125.318 " />
<polygon points="169.947,77.085 199.843,76.872 199.189,55.267 169.872,56.220 " />
<polygon points="199.405,107.213 199.882,85.574 169.982,85.618 170.068,106.494 " />
<polygon points="199.843,76.872 231.237,76.466 233.175,51.150 199.189,55.267 " />
<polygon points="233.403,111.021 231.278,85.671 199.882,85.574 199.405,107.213 " />
<polygon points="103.324,81.606 142.112,81.460 142.123,76.850 103.156,76.645 " />
<polygon points="142.158,86.070 142.112,81.460 103.324,81.606 103.193,86.568 " />
<polygon points="142.112,81.460 169.961,81.351 169.947,77.085 142.123,76.850 " />
<polygon points="169.982,85.618 169.961,81.351 142.112,81.460 142.158,86.070 " />
<polygon points="104.377,255.490 146.451,253.944 146.280,248.930 104.337,250.130 " />
<polygon points="146.280,248.930 146.164,243.914 104.070,244.776 104.337,250.130 " />
<polygon points="146.451,253.944 176.651,252.759 176.516,248.065 146.280,248.930 " />
<polygon points="176.516,248.065 176.383,243.371 146.164,243.914 146.280,248.930 " />
<polygon points="112.204,297.640 149.574,293.073 147.739,271.035 104.854,274.955 " />
<polygon points="146.473,226.778 147.045,204.670 109.475,202.247 103.434,225.315 " />
<polygon points="149.574,293.073 177.496,292.122 177.091,269.880 147.739,271.035 " />
<polygon points="175.843,226.253 174.976,204.024 147.045,204.670 146.473,226.778 " />
<polygon points="104.854,274.955 147.739,271.035 146.451,253.944 104.377,255.490 " />
<polygon points="146.164,243.914 146.473,226.778 103.434,225.315 104.070,244.776 " />
<polygon points="147.739,271.035 177.091,269.880 176.651,252.759 146.451,253.944 " />
<polygon points="176.383,243.371 175.843,226.253 146.473,226.778 146.164,243.914 " />
<polygon points="102.389,51.610 143.128,55.684 144.535,37.861 111.462,32.226 " />
<polygon points="144.860,125.049 143.323,107.232 102.611,111.608 111.827,130.927 " />
<polygon points="143.128,55.684 169.872,56.220 169.672,38.415 144.535,37.861 " />
<polygon points="170.002,124.312 170.068,106.494 143.323,107.232 144.860,125.049 " />
<polygon points="103.156,76.645 142.123,76.850 143.128,55.684 102.389,51.610 " />
<polygon points="143.323,107.232 142.158,86.070 103.193,86.568 102.611,111.608 " />
<polygon points="142.123,76.850 169.947,77.085 169.872,56.220 143.128,55.684 " />
<polygon points="170.068,106.494 169.982,85.618 142.158,86.070 143.323,107.232 " />
<polygon points="54.730,36.539 36.861,37.383 39.975,81.841 61.411,81.761 " />
<polygon points="39.975,81.841 37.190,126.320 55.065,127.032 61.411,81.761 " />
<polygon points="36.861,37.383 34.007,37.146 33.994,81.863 39.975,81.841 " />
<polygon points="33.994,81.863 34.338,126.578 37.190,126.320 39.975,81.841 " />
<polygon points="60.540,251.383 40.279,251.963 38.103,291.171 57.008,291.840 " />
<polygon points="35.864,212.943 40.279,251.963 60.540,251.383 54.700,211.194 " />
<polygon points="40.279,251.963 35.065,252.112 35.130,291.407 38.103,291.171 " />
<polygon points="32.882,212.877 35.065,252.112 40.279,251.963 35.864,212.943 " />
<polygon points="53.733,307.924 29.634,307.766 20.335,322.962 52.125,329.296 " />
<polygon points="16.307,182.220 26.460,196.859 50.510,195.323 47.683,174.078 " />
<polygon points="29.634,307.766 27.188,307.209 18.095,321.898 20.335,322.962 " />
<polygon points="14.131,183.410 24.050,197.555 26.460,196.859 16.307,182.220 " />
<polygon points="57.008,291.840 38.103,291.171 29.634,307.766 53.733,307.924 " />
<polygon points="26.460,196.859 35.864,212.943 54.700,211.194 50.510,195.323 " />
<polygon points="38.103,291.171 35.130,291.407 27.188,307.209 29.634,307.766 " />
<polygon points="24.050,197.555 32.882,212.877 35.864,212.943 26.460,196.859 " />
<polygon points="50.695,21.977 27.759,22.836 36.861,37.383 54.730,36.539 " />
<polygon points="37.190,126.320 28.196,140.933 51.137,141.623 55.065,127.032 " />
<polygon points="27.759,22.836 25.853,23.417 34.007,37.146 36.861,37.383 " />
<polygon points="34.338,126.578 26.286,140.366 28.196,140.933 37.190,126.320 " />
<polygon points="50.217,3.616 19.596,12.709 27.759,22.836 50.695,21.977 " />
<polygon points="28.196,140.933 20.108,151.121 50.795,159.987 51.137,141.623 " />
<polygon points="19.596,12.709 18.112,13.928 25.853,23.417 27.759,22.836 " />
<polygon points="26.286,140.366 18.615,149.912 20.108,151.121 28.196,140.933 " />
<polygon points="100.038,76.727 95.776,69.999 96.296,81.632 100.119,81.618 " />
<polygon points="96.296,81.632 95.862,93.269 100.074,86.510 100.119,81.618 " />
<polygon points="95.776,69.999 69.826,43.186 77.160,81.703 96.296,81.632 " />
<polygon points="77.160,81.703 70.111,120.273 95.862,93.269 96.296,81.632 " />
<polygon points="100.856,250.229 96.681,250.349 96.427,261.505 101.016,255.556 " />
<polygon points="95.790,239.226 96.681,250.349 100.856,250.229 100.712,244.902 " />
<polygon points="96.681,250.349 75.823,250.946 71.421,283.034 96.427,261.505 " />
<polygon points="69.593,219.161 75.823,250.946 96.681,250.349 95.790,239.226 " />
<polygon points="72.322,301.502 96.565,281.077 96.427,261.505 71.421,283.034 " />
<polygon points="95.790,239.226 94.808,219.677 69.436,200.672 69.593,219.161 " />
<polygon points="96.565,281.077 101.390,275.535 101.016,255.556 96.427,261.505 " />
<polygon points="100.712,244.902 99.942,224.935 94.808,219.677 95.790,239.226 " />
<polygon points="77.205,322.220 104.455,302.117 96.565,281.077 72.322,301.502 " />
<polygon points="94.808,219.677 101.483,198.220 73.127,179.708 69.436,200.672 " />
<polygon points="104.455,302.117 109.602,298.537 101.390,275.535 96.565,281.077 " />
<polygon points="99.942,224.935 106.826,201.500 101.483,198.220 94.808,219.677 " />
<polygon points="68.692,26.727 93.993,45.474 103.365,27.988 75.255,9.353 " />
<polygon points="103.762,135.224 94.260,117.807 69.099,136.740 75.790,154.066 " />
<polygon points="93.993,45.474 98.895,50.846 108.705,30.915 103.365,27.988 " />
<polygon points="109.080,132.257 99.123,112.399 94.260,117.807 103.762,135.224 " />
<polygon points="95.776,69.999 100.038,76.727 98.895,50.846 93.993,45.474 " />
<polygon points="99.123,112.399 100.074,86.510 95.862,93.269 94.260,117.807 " />
<polygon points="93.993,45.474 68.692,26.727 69.826,43.186 95.776,69.999 " />
<polygon points="70.111,120.273 69.099,136.740 94.260,117.807 95.862,93.269 " />
<polygon points="231.237,76.466 238.331,77.177 243.660,49.594 233.175,51.150 " />
<polygon points="243.869,112.466 238.368,84.894 231.278,85.671 233.403,111.021 " />
<polygon points="238.331,77.177 241.435,77.706 247.602,48.895 243.660,49.594 " />
<polygon points="247.798,113.120 241.470,84.336 238.368,84.894 243.869,112.466 " />
<polygon points="233.175,51.150 243.660,49.594 229.313,29.359 223.702,32.438 " />
<polygon points="229.874,132.885 243.869,112.466 233.403,111.021 224.196,129.874 " />
<polygon points="243.660,49.594 247.602,48.895 231.927,27.586 229.313,29.359 " />
<polygon points="232.517,134.617 247.798,113.120 243.869,112.466 229.874,132.885 " />
<polygon points="245.243,271.301 254.318,273.692 252.450,250.113 244.472,251.237 " />
<polygon points="252.209,241.681 252.726,218.034 243.803,220.940 244.179,241.015 " />
<polygon points="254.318,273.692 257.926,274.727 255.700,249.601 252.450,250.113 " />
<polygon points="255.483,242.006 256.269,216.794 252.726,218.034 252.209,241.681 " />
<polygon points="238.130,296.168 245.757,300.071 254.318,273.692 245.243,271.301 " />
<polygon points="252.726,218.034 242.672,192.187 235.280,196.520 243.803,220.940 " />
<polygon points="245.757,300.071 248.667,301.684 257.926,274.727 254.318,273.692 " />
<polygon points="256.269,216.794 245.485,190.411 242.672,192.187 252.726,218.034 " />
<polygon points="244.472,251.237 252.450,250.113 252.310,245.897 244.314,246.126 " />
<polygon points="252.310,245.897 252.209,241.681 244.179,241.015 244.314,246.126 " />
<polygon points="252.450,250.113 255.700,249.601 255.522,245.805 252.310,245.897 " />
<polygon points="255.522,245.805 255.483,242.006 252.209,241.681 252.310,245.897 " />
<polygon points="231.201,81.069 238.341,81.035 238.331,77.177 231.237,76.466 " />
<polygon points="238.368,84.894 238.341,81.035 231.201,81.069 231.278,85.671 " />
<polygon points="238.341,81.035 241.355,81.020 241.435,77.706 238.331,77.177 " />
<polygon points="241.470,84.336 241.355,81.020 238.341,81.035 238.368,84.894 " />
<polygon points="241.355,81.020 247.656,80.983 247.702,77.170 241.435,77.706 " />
<polygon points="247.755,84.801 247.656,80.983 241.355,81.020 241.470,84.336 " />
<polygon points="247.656,80.983 262.602,80.844 262.622,74.906 247.702,77.170 " />
<polygon points="262.794,86.785 262.602,80.844 247.656,80.983 247.755,84.801 " />
<polygon points="255.700,249.601 262.084,249.868 262.895,245.595 255.522,245.805 " />
<polygon points="262.895,245.595 261.841,241.375 255.483,242.006 255.522,245.805 " />
<polygon points="262.084,249.868 276.990,251.566 276.645,245.201 262.895,245.595 " />
<polygon points="276.645,245.201 276.626,238.827 261.841,241.375 262.895,245.595 " />
<polygon points="248.667,301.684 254.301,306.313 268.045,277.405 257.926,274.727 " />
<polygon points="266.218,213.542 250.845,185.468 245.485,190.411 256.269,216.794 " />
<polygon points="254.301,306.313 275.775,321.997 282.846,293.227 268.045,277.405 " />
<polygon points="280.090,196.900 271.386,168.582 250.845,185.468 266.218,213.542 " />
<polygon points="257.926,274.727 268.045,277.405 262.084,249.868 255.700,249.601 " />
<polygon points="261.841,241.375 266.218,213.542 256.269,216.794 255.483,242.006 " />
<polygon points="268.045,277.405 282.846,293.227 276.990,251.566 262.084,249.868 " />
<polygon points="276.626,238.827 280.090,196.900 266.218,213.542 261.841,241.375 " />
<polygon points="247.602,48.895 253.222,44.046 237.474,23.821 231.927,27.586 " />
<polygon points="238.151,138.295 253.424,117.882 247.798,113.120 232.517,134.617 " />
<polygon points="253.222,44.046 267.045,35.003 256.375,10.199 237.474,23.821 " />
<polygon points="257.771,151.442 265.988,123.564 253.424,117.882 238.151,138.295 " />
<polygon points="241.435,77.706 247.702,77.170 253.222,44.046 247.602,48.895 " />
<polygon points="253.424,117.882 247.755,84.801 241.470,84.336 247.798,113.120 " />
<polygon points="247.702,77.170 262.622,74.906 267.045,35.003 253.222,44.046 " />
<polygon points="265.988,123.564 262.794,86.785 247.755,84.801 253.424,117.882 " />
<polygon points="382.195,78.678 386.671,77.110 387.476,63.544 383.330,61.358 " />
<polygon points="387.971,95.365 386.744,81.822 382.221,80.392 383.891,97.683 " />
<polygon points="386.671,77.110 390.792,76.855 391.064,64.918 387.476,63.544 " />
<polygon points="391.517,93.878 390.872,81.949 386.744,81.822 387.971,95.365 " />
<polygon points="383.330,61.358 387.476,63.544 390.849,59.234 387.832,56.490 " />
<polygon points="391.481,99.570 387.971,95.365 383.891,97.683 388.550,102.412 " />
<polygon points="387.476,63.544 391.064,64.918 393.717,61.385 390.849,59.234 " />
<polygon points="394.282,97.327 391.517,93.878 387.971,95.365 391.481,99.570 " />
<polygon points="397.755,258.411 401.587,256.562 399.796,244.527 395.114,242.747 " />
<polygon points="399.204,239.052 400.724,226.625 396.809,225.040 395.068,240.908 " />
<polygon points="401.587,256.562 405.182,255.333 403.928,244.221 399.796,244.527 " />
<polygon points="403.667,238.877 404.352,227.647 400.724,226.625 399.204,239.052 " />
<polygon points="401.955,264.626 404.539,261.572 401.587,256.562 397.755,258.411 " />
<polygon points="400.724,226.625 403.351,221.493 400.604,218.610 396.809,225.040 " />
<polygon points="404.539,261.572 407.463,259.693 405.182,255.333 401.587,256.562 " />
<polygon points="404.352,227.647 406.353,223.181 403.351,221.493 400.724,226.625 " />
<polygon points="395.114,242.747 399.796,244.527 398.187,241.751 394.440,241.845 " />
<polygon points="398.187,241.751 399.204,239.052 395.068,240.908 394.440,241.845 " />
<polygon points="399.796,244.527 403.928,244.221 403.881,241.547 398.187,241.751 " />
<polygon points="403.881,241.547 403.667,238.877 399.204,239.052 398.187,241.751 " />
<polygon points="382.214,79.535 386.789,79.465 386.671,77.110 382.195,78.678 " />
<polygon points="386.744,81.822 386.789,79.465 382.214,79.535 382.221,80.392 " />
<polygon points="386.789,79.465 390.893,79.401 390.792,76.855 386.671,77.110 " />
<polygon points="390.872,81.949 390.893,79.401 386.789,79.465 386.744,81.822 " />
<polygon points="315.014,80.341 327.046,80.236 326.801,75.003 314.805,73.998 " />
<polygon points="326.892,85.476 327.046,80.236 315.014,80.341 314.902,86.687 " />
<polygon points="327.046,80.236 350.829,79.982 350.793,77.195 326.801,75.003 " />
<polygon points="350.860,82.772 350.829,79.982 327.046,80.236 326.892,85.476 " />
<polygon points="330.849,250.159 337.449,248.422 337.422,243.461 330.817,243.650 " />
<polygon points="337.422,243.461 337.165,238.507 330.476,237.151 330.817,243.650 " />
<polygon points="337.449,248.422 355.317,245.424 353.108,243.012 337.422,243.461 " />
<polygon points="353.108,243.012 355.175,240.477 337.165,238.507 337.422,243.461 " />
<polygon points="344.037,318.955 356.516,308.100 337.887,279.744 328.735,285.455 " />
<polygon points="335.809,207.212 352.783,177.840 339.705,167.717 326.346,202.035 " />
<polygon points="356.516,308.100 372.060,284.513 359.864,269.017 337.887,279.744 " />
<polygon points="358.364,216.662 369.650,200.496 352.783,177.840 335.809,207.212 " />
<polygon points="328.735,285.455 337.887,279.744 337.449,248.422 330.849,250.159 " />
<polygon points="337.165,238.507 335.809,207.212 326.346,202.035 330.476,237.151 " />
<polygon points="337.887,279.744 359.864,269.017 355.317,245.424 337.449,248.422 " />
<polygon points="355.175,240.477 358.364,216.662 335.809,207.212 337.165,238.507 " />
<polygon points="312.080,34.718 321.568,40.610 337.762,18.256 325.279,8.513 " />
<polygon points="339.238,142.507 323.788,116.657 314.191,123.545 325.880,152.511 " />
<polygon points="321.568,40.610 343.671,48.176 356.945,37.877 337.762,18.256 " />
<polygon points="358.152,122.079 344.513,112.073 323.788,116.657 339.238,142.507 " />
<polygon points="314.805,73.998 326.801,75.003 321.568,40.610 312.080,34.718 " />
<polygon points="323.788,116.657 326.892,85.476 314.902,86.687 314.191,123.545 " />
<polygon points="326.801,75.003 350.793,77.195 343.671,48.176 321.568,40.610 " />
<polygon points="344.513,112.073 350.860,82.772 326.892,85.476 323.788,116.657 " />
<polygon points="0.000,404.492 5.974,464.683 8.925,463.099 9.628,404.172 " />
<polygon points="11.544,339.120 0.000,404.492 9.628,404.172 16.533,341.811 " />
<polygon points="37.073,469.104 56.492,461.654 54.901,459.632 36.396,466.866 " />
<polygon points="70.929,362.600 57.395,347.824 55.983,350.240 68.857,364.088 " />
<polygon points="74.841,436.774 74.841,436.774 82.572,433.396 82.798,434.514 " />
<polygon points="87.381,394.184 87.114,395.229 81.405,391.633 81.405,391.633 " />
<polygon points="221.658,504.614 223.540,501.008 250.515,512.000 250.515,512.000 " />
<polygon points="251.954,330.527 252.777,333.421 232.147,341.753 232.147,341.753 " />
<polygon points="250.515,512.000 277.356,509.458 276.491,506.248 250.892,508.349 " />
<polygon points="275.614,329.296 251.954,330.527 252.777,333.421 275.641,332.398 " />
<polygon points="276.491,506.248 276.491,506.248 297.396,496.210 299.431,498.572 " />
<polygon points="301.465,333.952 301.465,333.952 275.641,332.398 275.614,329.296 " />
<polygon points="319.147,453.945 319.147,453.945 328.165,434.892 329.790,436.015 " />
<polygon points="373.439,330.833 372.900,332.527 359.019,329.296 359.019,329.296 " />
<polygon points="329.790,436.015 340.274,426.512 339.362,424.753 328.165,434.892 " />
<polygon points="384.648,337.596 373.439,330.833 372.900,332.527 384.050,338.542 " />
<polygon points="339.362,424.753 339.362,424.753 353.809,421.723 353.493,423.701 " />
<polygon points="390.059,343.601 390.059,343.601 384.050,338.542 384.648,337.596 " />
<polygon points="353.493,423.701 367.643,430.441 367.722,428.409 353.809,421.723 " />
<polygon points="395.153,344.907 390.517,342.924 390.059,343.601 394.853,345.473 " />
<polygon points="367.643,430.441 367.722,428.409 381.378,424.740 381.378,424.740 " />
<polygon points="398.822,347.693 398.822,347.693 394.853,345.473 395.153,344.907 " />
<polygon points="381.378,424.740 388.649,411.259 386.804,410.613 379.989,423.159 " />
<polygon points="399.953,351.372 399.294,347.339 398.822,347.693 399.404,351.434 " />
<polygon points="399.017,384.690 404.892,373.502 403.323,373.435 397.437,383.793 " />
<polygon points="404.892,373.502 400.738,362.066 399.703,362.320 403.323,373.435 " />
<polygon points="138.139,439.294 154.925,444.729 155.886,442.895 138.500,437.062 " />
<polygon points="171.571,395.807 144.242,400.937 144.596,403.975 172.664,398.605 " />
<polygon points="119.949,436.647 138.139,439.294 138.500,437.062 120.080,434.272 " />
<polygon points="144.242,400.937 123.927,398.952 123.793,401.451 144.596,403.975 " />
<polygon points="82.798,434.514 101.724,434.859 101.711,432.442 82.572,433.396 " />
<polygon points="105.610,396.598 87.381,394.184 87.114,395.229 105.419,398.934 " />
<polygon points="101.724,434.859 119.949,436.647 120.080,434.272 101.711,432.442 " />
<polygon points="123.927,398.952 105.610,396.598 105.419,398.934 123.793,401.451 " />
<polygon points="5.974,464.683 21.081,469.042 21.241,466.981 8.925,463.099 " />
<polygon points="35.318,338.043 11.544,339.120 16.533,341.811 34.936,341.393 " />
<polygon points="21.081,469.042 37.073,469.104 36.396,466.866 21.241,466.981 " />
<polygon points="57.395,347.824 35.318,338.043 34.936,341.393 55.983,350.240 " />
<polygon points="68.800,446.499 75.663,437.751 74.841,436.774 67.568,445.582 " />
<polygon points="81.405,391.633 77.105,380.149 75.401,380.951 80.583,392.355 " />
<polygon points="56.492,461.654 68.800,446.499 67.568,445.582 54.901,459.632 " />
<polygon points="77.105,380.149 70.929,362.600 68.857,364.088 75.401,380.951 " />
<polygon points="154.925,444.729 155.886,442.895 165.061,453.235 165.061,453.235 " />
<polygon points="189.552,384.453 190.837,386.617 171.571,395.807 171.571,395.807 " />
<polygon points="165.061,453.235 166.229,451.899 177.529,462.669 177.529,462.669 " />
<polygon points="206.918,374.968 206.918,374.968 190.837,386.617 189.552,384.453 " />
<polygon points="177.529,462.669 195.575,483.723 198.041,480.669 179.143,460.882 " />
<polygon points="217.949,359.398 205.223,373.050 206.918,374.968 219.942,360.940 " />
<polygon points="195.575,483.723 221.658,504.614 223.540,501.008 198.041,480.669 " />
<polygon points="232.147,341.753 217.949,359.398 219.942,360.940 234.018,344.009 " />
<polygon points="386.804,410.613 386.804,410.613 389.423,395.743 391.202,396.582 " />
<polygon points="399.518,355.563 399.518,355.563 399.404,351.434 399.953,351.372 " />
<polygon points="389.423,395.743 389.423,395.743 397.437,383.793 399.017,384.690 " />
<polygon points="399.703,362.320 399.703,362.320 399.518,355.563 400.132,355.575 " />
<polygon points="299.431,498.572 312.039,479.287 309.239,478.072 297.396,496.210 " />
<polygon points="333.685,330.496 301.567,330.205 301.465,333.952 334.012,333.978 " />
<polygon points="312.039,479.287 321.911,455.103 319.147,453.945 309.239,478.072 " />
<polygon points="359.019,329.296 333.685,330.496 334.012,333.978 359.098,331.518 " />
</g>
</svg>