<?xml version="1.0"?>
<!DOCTYPE svg PUBLIC "-//W3C//DTD SVG 1.1//EN" "http://www.w3.org/Graphics/SVG/1.1/DTD/svg11.dtd">
<svg width="512px" height="512px" viewBox="0 0 512 512" xmlns="http://www.w3.org/2000/svg" version="1.1">
<desc>UV-Map from Object: Torus.002. Exported from Blender3D with UV Exportscript</desc>
<rect x="0" y="0" width="512" height="512" fill="none" stroke="blue" stroke-width="1px" />
<g style="fill:#F2DAF2; stroke:black; stroke-width:1px;">
<polygon points="311.229,276.975 300.788,277.020 300.871,285.396 311.237,285.526 " />
<polygon points="311.237,285.526 300.871,285.396 301.002,294.455 311.194,294.217 " />
<polygon points="311.194,294.217 301.002,294.455 301.066,304.003 311.379,303.755 " />
<polygon points="311.222,250.139 300.857,249.937 300.805,259.718 311.331,259.709 " />
<polygon points="311.331,259.709 300.805,259.718 300.808,268.651 311.212,268.575 " />
<polygon points="311.229,276.975 311.212,268.575 300.808,268.651 300.788,277.020 " />
<polygon points="300.788,277.020 290.371,277.046 290.358,285.440 300.871,285.396 " />
<polygon points="300.871,285.396 290.358,285.440 290.476,294.331 301.002,294.455 " />
<polygon points="301.002,294.455 290.476,294.331 290.543,304.279 301.066,304.003 " />
<polygon points="300.857,249.937 290.287,249.764 290.143,259.525 300.805,259.718 " />
<polygon points="300.805,259.718 290.143,259.525 290.406,268.490 300.808,268.651 " />
<polygon points="300.808,268.651 290.406,268.490 290.371,277.046 300.788,277.020 " />
<polygon points="290.371,277.046 279.908,277.011 279.955,285.553 290.358,285.440 " />
<polygon points="290.358,285.440 279.955,285.553 280.003,294.388 290.476,294.331 " />
<polygon points="290.476,294.331 280.003,294.388 280.047,304.114 290.543,304.279 " />
<polygon points="290.287,249.764 279.757,250.030 279.962,259.466 290.143,259.525 " />
<polygon points="290.143,259.525 279.962,259.466 279.977,268.453 290.406,268.490 " />
<polygon points="290.406,268.490 279.977,268.453 279.908,277.011 290.371,277.046 " />
<polygon points="279.908,277.011 269.439,277.151 269.477,285.581 279.955,285.553 " />
<polygon points="279.955,285.553 269.477,285.581 269.474,294.441 280.003,294.388 " />
<polygon points="280.003,294.388 269.474,294.441 269.597,304.349 280.047,304.114 " />
<polygon points="279.757,250.030 269.276,249.934 269.510,259.736 279.962,259.466 " />
<polygon points="279.962,259.466 269.510,259.736 269.396,268.721 279.977,268.453 " />
<polygon points="279.977,268.453 269.396,268.721 269.439,277.151 279.908,277.011 " />
<polygon points="269.439,277.151 258.984,277.197 258.997,285.635 269.477,285.581 " />
<polygon points="269.477,285.581 258.997,285.635 259.102,294.790 269.474,294.441 " />
<polygon points="269.474,294.441 259.102,294.790 259.136,304.233 269.597,304.349 " />
<polygon points="269.276,249.934 258.827,250.203 258.802,259.845 269.510,259.736 " />
<polygon points="269.510,259.736 258.802,259.845 258.969,268.617 269.396,268.721 " />
<polygon points="269.396,268.721 258.969,268.617 258.984,277.197 269.439,277.151 " />
<polygon points="258.984,277.197 248.483,277.250 248.445,285.830 258.997,285.635 " />
<polygon points="258.997,285.635 248.445,285.830 248.589,294.623 259.102,294.790 " />
<polygon points="259.102,294.790 248.589,294.623 248.703,304.484 259.136,304.233 " />
<polygon points="258.827,250.203 248.447,250.088 248.422,259.923 258.802,259.845 " />
<polygon points="258.802,259.845 248.422,259.923 248.424,268.763 258.969,268.617 " />
<polygon points="258.969,268.617 248.424,268.763 248.483,277.250 258.984,277.197 " />
<polygon points="248.483,277.250 237.969,277.245 237.990,285.697 248.445,285.830 " />
<polygon points="248.445,285.830 237.990,285.697 238.032,294.705 248.589,294.623 " />
<polygon points="248.589,294.623 238.032,294.705 238.077,304.736 248.703,304.484 " />
<polygon points="248.447,250.088 237.891,249.904 237.895,259.885 248.422,259.923 " />
<polygon points="248.422,259.923 237.895,259.885 237.904,268.840 248.424,268.763 " />
<polygon points="248.424,268.763 237.904,268.840 237.969,277.245 248.483,277.250 " />
<polygon points="237.969,277.245 227.432,277.303 227.439,285.793 237.990,285.697 " />
<polygon points="237.990,285.697 227.439,285.793 227.465,294.773 238.032,294.705 " />
<polygon points="238.032,294.705 227.465,294.773 227.490,304.519 238.077,304.736 " />
<polygon points="237.891,249.904 227.360,250.146 227.378,259.863 237.895,259.885 " />
<polygon points="237.895,259.885 227.378,259.863 227.378,268.816 237.904,268.840 " />
<polygon points="237.904,268.840 227.378,268.816 227.432,277.303 237.969,277.245 " />
<polygon points="227.432,277.303 216.848,277.361 216.938,285.920 227.439,285.793 " />
<polygon points="227.439,285.793 216.938,285.920 216.946,294.783 227.465,294.773 " />
<polygon points="227.465,294.773 216.946,294.783 217.041,304.676 227.490,304.519 " />
<polygon points="227.360,250.146 216.938,250.007 216.860,259.881 227.378,259.863 " />
<polygon points="227.378,259.863 216.860,259.881 216.877,268.736 227.378,268.816 " />
<polygon points="227.378,268.816 216.877,268.736 216.848,277.361 227.432,277.303 " />
<polygon points="216.848,277.361 206.238,277.337 206.174,286.040 216.938,285.920 " />
<polygon points="216.938,285.920 206.174,286.040 206.340,294.910 216.946,294.783 " />
<polygon points="216.946,294.783 206.340,294.910 206.464,304.928 217.041,304.676 " />
<polygon points="216.938,250.007 206.377,249.766 206.032,259.627 216.860,259.881 " />
<polygon points="216.860,259.881 206.032,259.627 206.115,268.742 216.877,268.736 " />
<polygon points="216.877,268.736 206.115,268.742 206.238,277.337 216.848,277.361 " />
<polygon points="206.238,277.337 195.584,277.312 195.674,285.908 206.174,286.040 " />
<polygon points="206.174,286.040 195.674,285.908 195.633,294.997 206.340,294.910 " />
<polygon points="206.340,294.910 195.633,294.997 195.682,305.199 206.464,304.928 " />
<polygon points="206.377,249.766 195.608,249.503 195.568,259.693 206.032,259.627 " />
<polygon points="206.032,259.627 195.568,259.693 195.589,268.612 206.115,268.742 " />
<polygon points="206.115,268.742 195.589,268.612 195.584,277.312 206.238,277.337 " />
<polygon points="195.584,277.312 184.882,277.351 185.062,286.073 195.674,285.908 " />
<polygon points="195.674,285.908 185.062,286.073 184.878,295.320 195.633,294.997 " />
<polygon points="195.633,294.997 184.878,295.320 184.920,305.006 195.682,305.199 " />
<polygon points="195.608,249.503 184.856,249.703 184.859,259.680 195.568,259.693 " />
<polygon points="195.568,259.693 184.859,259.680 184.802,268.617 195.589,268.612 " />
<polygon points="195.589,268.612 184.802,268.617 184.882,277.351 195.584,277.312 " />
<polygon points="184.882,277.351 174.180,277.369 174.254,286.063 185.062,286.073 " />
<polygon points="185.062,286.073 174.254,286.063 174.147,295.031 184.878,295.320 " />
<polygon points="184.878,295.320 174.147,295.031 174.167,305.210 184.920,305.006 " />
<polygon points="184.856,249.703 174.101,249.508 174.141,259.699 184.859,259.680 " />
<polygon points="184.859,259.680 174.141,259.699 174.263,268.698 184.802,268.617 " />
<polygon points="184.802,268.617 174.263,268.698 174.180,277.369 184.882,277.351 " />
<polygon points="174.180,277.369 163.522,277.360 163.549,285.923 174.254,286.063 " />
<polygon points="174.254,286.063 163.549,285.923 163.606,295.312 174.147,295.031 " />
<polygon points="174.147,295.031 163.606,295.312 163.398,304.950 174.167,305.210 " />
<polygon points="174.101,249.508 163.330,249.773 163.644,259.425 174.141,259.699 " />
<polygon points="174.141,259.699 163.644,259.425 163.626,268.686 174.263,268.698 " />
<polygon points="174.263,268.698 163.626,268.686 163.522,277.360 174.180,277.369 " />
<polygon points="163.522,277.360 152.888,277.336 152.915,285.928 163.549,285.923 " />
<polygon points="163.549,285.923 152.915,285.928 152.909,295.161 163.606,295.312 " />
<polygon points="163.606,295.312 152.909,295.161 152.851,304.719 163.398,304.950 " />
<polygon points="163.330,249.773 152.783,250.013 152.827,259.835 163.644,259.425 " />
<polygon points="163.644,259.425 152.827,259.835 152.867,268.792 163.626,268.686 " />
<polygon points="163.626,268.686 152.867,268.792 152.888,277.336 163.522,277.360 " />
<polygon points="152.888,277.336 142.279,277.371 142.282,285.850 152.915,285.928 " />
<polygon points="152.915,285.928 142.282,285.850 142.295,294.860 152.909,295.161 " />
<polygon points="152.909,295.161 142.295,294.860 142.258,304.903 152.851,304.719 " />
<polygon points="152.783,250.013 142.188,249.841 142.088,259.741 152.827,259.835 " />
<polygon points="152.827,259.835 142.088,259.741 142.282,268.901 152.867,268.792 " />
<polygon points="152.867,268.792 142.282,268.901 142.279,277.371 152.888,277.336 " />
<polygon points="142.279,277.371 131.728,277.393 131.696,286.059 142.282,285.850 " />
<polygon points="142.282,285.850 131.696,286.059 131.589,294.898 142.295,294.860 " />
<polygon points="142.295,294.860 131.589,294.898 131.641,304.664 142.258,304.903 " />
<polygon points="142.188,249.841 131.567,250.095 131.659,259.951 142.088,259.741 " />
<polygon points="142.088,259.741 131.659,259.951 131.705,268.890 142.282,268.901 " />
<polygon points="142.282,268.901 131.705,268.890 131.728,277.393 142.279,277.371 " />
<polygon points="131.728,277.393 121.206,277.334 121.209,285.921 131.696,286.059 " />
<polygon points="131.696,286.059 121.209,285.921 121.096,294.899 131.589,294.898 " />
<polygon points="131.589,294.898 121.096,294.899 121.240,304.465 131.641,304.664 " />
<polygon points="131.567,250.095 121.161,250.309 121.092,259.977 131.659,259.951 " />
<polygon points="131.659,259.951 121.092,259.977 121.169,268.740 131.705,268.890 " />
<polygon points="131.705,268.890 121.169,268.740 121.206,277.334 131.728,277.393 " />
<polygon points="121.206,277.334 110.670,277.403 110.631,285.917 121.209,285.921 " />
<polygon points="121.209,285.921 110.631,285.917 110.725,294.844 121.096,294.899 " />
<polygon points="121.096,294.899 110.725,294.844 110.848,304.695 121.240,304.465 " />
<polygon points="121.161,250.309 110.759,250.094 110.660,259.959 121.092,259.977 " />
<polygon points="121.092,259.977 110.660,259.959 110.621,268.898 121.169,268.740 " />
<polygon points="121.169,268.740 110.621,268.898 110.670,277.403 121.206,277.334 " />
<polygon points="110.670,277.403 100.042,277.425 100.066,285.955 110.631,285.917 " />
<polygon points="110.631,285.917 100.066,285.955 100.145,294.923 110.725,294.844 " />
<polygon points="110.725,294.844 100.145,294.923 100.248,304.992 110.848,304.695 " />
<polygon points="110.759,250.094 100.134,249.821 100.069,259.911 110.660,259.959 " />
<polygon points="110.660,259.959 100.069,259.911 100.001,268.904 110.621,268.898 " />
<polygon points="110.621,268.898 100.001,268.904 100.042,277.425 110.670,277.403 " />
<polygon points="100.042,277.425 89.440,277.462 89.336,286.177 100.066,285.955 " />
<polygon points="100.066,285.955 89.336,286.177 89.369,295.255 100.145,294.923 " />
<polygon points="100.145,294.923 89.369,295.255 89.633,304.918 100.248,304.992 " />
<polygon points="100.134,249.821 89.482,249.948 89.432,259.777 100.069,259.911 " />
<polygon points="100.069,259.911 89.432,259.777 89.311,268.867 100.001,268.904 " />
<polygon points="100.001,268.904 89.311,268.867 89.440,277.462 100.042,277.425 " />
<polygon points="89.440,277.462 78.736,277.483 78.768,286.080 89.336,286.177 " />
<polygon points="89.336,286.177 78.768,286.080 78.687,295.531 89.369,295.255 " />
<polygon points="89.369,295.255 78.687,295.531 79.029,305.222 89.633,304.918 " />
<polygon points="89.482,249.948 78.873,249.737 78.666,259.765 89.432,259.777 " />
<polygon points="89.432,259.777 78.666,259.765 78.601,268.813 89.311,268.867 " />
<polygon points="89.311,268.867 78.601,268.813 78.736,277.483 89.440,277.462 " />
<polygon points="78.736,277.483 67.986,277.455 68.009,286.110 78.768,286.080 " />
<polygon points="78.768,286.080 68.009,286.110 67.864,295.552 78.687,295.531 " />
<polygon points="78.687,295.531 67.864,295.552 68.216,305.547 79.029,305.222 " />
<polygon points="78.873,249.737 68.096,249.466 67.988,259.337 78.666,259.765 " />
<polygon points="78.666,259.765 67.988,259.337 67.964,268.552 78.601,268.813 " />
<polygon points="78.601,268.813 67.964,268.552 67.986,277.455 78.736,277.483 " />
<polygon points="67.986,277.455 57.123,277.490 57.056,286.363 68.009,286.110 " />
<polygon points="68.009,286.110 57.056,286.363 57.165,295.628 67.864,295.552 " />
<polygon points="67.864,295.552 57.165,295.628 57.427,305.457 68.216,305.547 " />
<polygon points="68.096,249.466 57.342,249.584 57.110,259.385 67.988,259.337 " />
<polygon points="67.988,259.337 57.110,259.385 57.159,268.729 67.964,268.552 " />
<polygon points="67.964,268.552 57.159,268.729 57.123,277.490 67.986,277.455 " />
<polygon points="57.123,277.490 46.176,277.508 46.277,286.307 57.056,286.363 " />
<polygon points="57.056,286.363 46.277,286.307 46.456,295.889 57.165,295.628 " />
<polygon points="57.165,295.628 46.456,295.889 46.695,305.810 57.427,305.457 " />
<polygon points="57.342,249.584 46.635,249.257 46.384,259.130 57.110,259.385 " />
<polygon points="57.110,259.385 46.384,259.130 46.160,268.702 57.159,268.729 " />
<polygon points="57.159,268.729 46.160,268.702 46.176,277.508 57.123,277.490 " />
<polygon points="46.176,277.508 35.121,277.516 35.241,286.580 46.277,286.307 " />
<polygon points="46.277,286.307 35.241,286.580 35.431,295.879 46.456,295.889 " />
<polygon points="46.456,295.889 35.431,295.879 35.805,306.257 46.695,305.810 " />
<polygon points="46.635,249.257 35.774,248.838 35.419,259.174 46.384,259.130 " />
<polygon points="46.384,259.130 35.419,259.174 35.194,268.546 46.160,268.702 " />
<polygon points="46.160,268.702 35.194,268.546 35.121,277.516 46.176,277.508 " />
<polygon points="35.121,277.516 23.714,277.511 23.874,286.789 35.241,286.580 " />
<polygon points="35.241,286.580 23.874,286.789 24.324,296.351 35.431,295.879 " />
<polygon points="35.431,295.879 24.324,296.351 24.966,306.588 35.805,306.257 " />
<polygon points="35.774,248.838 24.972,248.540 24.343,258.695 35.419,259.174 " />
<polygon points="35.419,259.174 24.343,258.695 23.827,268.284 35.194,268.546 " />
<polygon points="35.194,268.546 23.827,268.284 23.714,277.511 35.121,277.516 " />
<polygon points="23.714,277.511 11.915,277.456 12.091,287.172 23.874,286.789 " />
<polygon points="23.874,286.789 12.091,287.172 12.949,297.160 24.324,296.351 " />
<polygon points="24.324,296.351 12.949,297.160 14.165,307.618 24.966,306.588 " />
<polygon points="24.972,248.540 14.295,247.560 12.928,257.798 24.343,258.695 " />
<polygon points="24.343,258.695 12.928,257.798 12.202,267.756 23.827,268.284 " />
<polygon points="23.827,268.284 12.202,267.756 11.915,277.456 23.714,277.511 " />
<polygon points="11.915,277.456 -1.071,277.372 -0.440,288.086 12.091,287.172 " />
<polygon points="12.091,287.172 -0.440,288.086 1.099,298.748 12.949,297.160 " />
<polygon points="12.949,297.160 1.099,298.748 3.404,309.270 14.165,307.618 " />
<polygon points="14.295,247.560 3.743,245.921 1.464,256.237 12.928,257.798 " />
<polygon points="12.928,257.798 1.464,256.237 -0.294,266.669 12.202,267.756 " />
<polygon points="12.202,267.756 -0.294,266.669 -1.071,277.372 11.915,277.456 " />
<polygon points="509.617,276.331 497.351,276.191 497.041,285.399 508.883,286.448 " />
<polygon points="508.883,286.448 497.041,285.399 496.211,294.775 507.207,296.369 " />
<polygon points="507.207,296.369 496.211,294.775 494.988,304.581 505.013,306.168 " />
<polygon points="505.314,245.920 495.105,247.516 496.310,257.452 507.529,255.901 " />
<polygon points="507.529,255.901 496.310,257.452 497.064,266.955 509.193,266.054 " />
<polygon points="509.193,266.054 497.064,266.955 497.351,276.191 509.617,276.331 " />
<polygon points="497.351,276.191 486.149,276.141 486.014,285.064 497.041,285.399 " />
<polygon points="497.041,285.399 486.014,285.064 485.546,293.954 496.211,294.775 " />
<polygon points="496.211,294.775 485.546,293.954 484.841,303.585 494.988,304.581 " />
<polygon points="495.105,247.516 484.819,248.540 485.482,258.271 496.310,257.452 " />
<polygon points="496.310,257.452 485.482,258.271 485.942,267.368 497.064,266.955 " />
<polygon points="497.064,266.955 485.942,267.368 486.149,276.141 497.351,276.191 " />
<polygon points="486.149,276.141 475.374,276.177 475.246,284.642 486.014,285.064 " />
<polygon points="486.014,285.064 475.246,284.642 475.077,293.714 485.546,293.954 " />
<polygon points="485.546,293.954 475.077,293.714 474.635,303.239 484.841,303.585 " />
<polygon points="484.819,248.540 474.499,248.925 474.964,258.768 485.482,258.271 " />
<polygon points="485.482,258.271 474.964,258.768 475.317,267.707 485.942,267.368 " />
<polygon points="485.942,267.368 475.317,267.707 475.374,276.177 486.149,276.141 " />
<polygon points="475.374,276.177 464.895,276.177 464.823,284.462 475.246,284.642 " />
<polygon points="475.246,284.642 464.823,284.462 464.681,293.242 475.077,293.714 " />
<polygon points="475.077,293.714 464.681,293.242 464.396,302.785 474.635,303.239 " />
<polygon points="474.499,248.925 464.168,249.479 464.470,258.925 474.964,258.768 " />
<polygon points="474.964,258.768 464.470,258.925 464.766,267.888 475.317,267.707 " />
<polygon points="475.317,267.707 464.766,267.888 464.895,276.177 475.374,276.177 " />
<polygon points="464.895,276.177 454.613,276.264 454.605,284.432 464.823,284.462 " />
<polygon points="464.823,284.462 454.605,284.432 454.511,293.025 464.681,293.242 " />
<polygon points="464.681,293.242 454.511,293.025 454.319,302.401 464.396,302.785 " />
<polygon points="464.168,249.479 454.014,249.937 454.305,259.432 464.470,258.925 " />
<polygon points="464.470,258.925 454.305,259.432 454.502,268.051 464.766,267.888 " />
<polygon points="464.766,267.888 454.502,268.051 454.613,276.264 464.895,276.177 " />
<polygon points="454.613,276.264 444.439,276.322 444.534,284.553 454.605,284.432 " />
<polygon points="454.605,284.432 444.534,284.553 444.396,293.107 454.511,293.025 " />
<polygon points="454.511,293.025 444.396,293.107 444.444,302.114 454.319,302.401 " />
<polygon points="454.014,249.937 444.003,250.298 444.213,259.694 454.305,259.432 " />
<polygon points="454.305,259.432 444.213,259.694 444.340,268.159 454.502,268.051 " />
<polygon points="454.502,268.051 444.340,268.159 444.439,276.322 454.613,276.264 " />
<polygon points="444.439,276.322 434.396,276.409 434.394,284.538 444.534,284.553 " />
<polygon points="444.534,284.553 434.394,284.538 434.543,293.248 444.396,293.107 " />
<polygon points="444.396,293.107 434.543,293.248 434.618,302.249 444.444,302.114 " />
<polygon points="444.003,250.298 434.073,250.552 434.297,259.795 444.213,259.694 " />
<polygon points="444.213,259.694 434.297,259.795 434.401,268.298 444.340,268.159 " />
<polygon points="444.340,268.159 434.401,268.298 434.396,276.409 444.439,276.322 " />
<polygon points="434.396,276.409 424.375,276.499 424.432,284.615 434.394,284.538 " />
<polygon points="434.394,284.538 424.432,284.615 424.672,293.152 434.543,293.248 " />
<polygon points="434.543,293.248 424.672,293.152 424.697,302.443 434.618,302.249 " />
<polygon points="434.073,250.552 424.237,250.749 424.165,259.887 434.297,259.795 " />
<polygon points="434.297,259.795 424.165,259.887 424.287,268.384 434.401,268.298 " />
<polygon points="434.401,268.298 424.287,268.384 424.375,276.499 434.396,276.409 " />
<polygon points="424.375,276.499 414.270,276.587 414.421,284.767 424.432,284.615 " />
<polygon points="424.432,284.615 414.421,284.767 414.503,293.263 424.672,293.152 " />
<polygon points="424.672,293.152 414.503,293.263 414.698,302.725 424.697,302.443 " />
<polygon points="424.237,250.749 414.349,250.542 414.261,259.914 424.165,259.887 " />
<polygon points="424.165,259.887 414.261,259.914 414.242,268.466 424.287,268.384 " />
<polygon points="424.287,268.384 414.242,268.466 414.270,276.587 424.375,276.499 " />
<polygon points="414.270,276.587 404.126,276.657 404.231,284.817 414.421,284.767 " />
<polygon points="414.421,284.767 404.231,284.817 404.184,293.763 414.503,293.263 " />
<polygon points="414.503,293.263 404.184,293.763 404.555,303.057 414.698,302.725 " />
<polygon points="414.349,250.542 404.241,250.289 403.963,259.719 414.261,259.914 " />
<polygon points="414.261,259.914 403.963,259.719 404.136,268.523 414.242,268.466 " />
<polygon points="414.242,268.466 404.136,268.523 404.126,276.657 414.270,276.587 " />
<polygon points="404.126,276.657 393.941,276.703 393.990,285.060 404.231,284.817 " />
<polygon points="404.231,284.817 393.990,285.060 394.114,293.622 404.184,293.763 " />
<polygon points="404.184,293.763 394.114,293.622 394.228,303.384 404.555,303.057 " />
<polygon points="404.241,250.289 393.938,250.087 393.926,259.837 403.963,259.719 " />
<polygon points="403.963,259.719 393.926,259.837 393.938,268.501 404.136,268.523 " />
<polygon points="404.136,268.523 393.938,268.501 393.941,276.703 404.126,276.657 " />
<polygon points="393.941,276.703 383.725,276.785 383.826,285.102 393.990,285.060 " />
<polygon points="393.990,285.060 383.826,285.102 384.008,293.867 394.114,293.622 " />
<polygon points="394.114,293.622 384.008,293.867 383.927,303.260 394.228,303.384 " />
<polygon points="393.938,250.087 383.672,250.303 383.780,259.549 393.926,259.837 " />
<polygon points="393.926,259.837 383.780,259.549 383.615,268.474 393.938,268.501 " />
<polygon points="393.938,268.501 383.615,268.474 383.725,276.785 393.941,276.703 " />
<polygon points="383.725,276.785 373.457,276.792 373.521,285.096 383.826,285.102 " />
<polygon points="383.826,285.102 373.521,285.096 373.676,294.148 384.008,293.867 " />
<polygon points="384.008,293.867 373.676,294.148 373.697,303.521 383.927,303.260 " />
<polygon points="383.672,250.303 373.479,250.152 373.569,259.535 383.780,259.549 " />
<polygon points="383.780,259.549 373.569,259.535 373.406,268.485 383.615,268.474 " />
<polygon points="383.615,268.474 373.406,268.485 373.457,276.792 383.725,276.785 " />
<polygon points="373.457,276.792 363.108,276.842 363.147,285.110 373.521,285.096 " />
<polygon points="373.521,285.096 363.147,285.110 363.285,294.212 373.676,294.148 " />
<polygon points="373.676,294.148 363.285,294.212 363.274,303.806 373.697,303.521 " />
<polygon points="373.479,250.152 363.106,249.936 363.245,259.645 373.569,259.535 " />
<polygon points="373.569,259.535 363.245,259.645 363.091,268.562 373.406,268.485 " />
<polygon points="373.406,268.485 363.091,268.562 363.108,276.842 373.457,276.792 " />
<polygon points="363.108,276.842 352.740,276.870 352.710,285.275 363.147,285.110 " />
<polygon points="363.147,285.110 352.710,285.275 352.830,294.001 363.285,294.212 " />
<polygon points="363.285,294.212 352.830,294.001 352.868,303.650 363.274,303.806 " />
<polygon points="363.106,249.936 352.736,250.129 352.753,259.760 363.245,259.645 " />
<polygon points="363.245,259.645 352.753,259.760 352.753,268.388 363.091,268.562 " />
<polygon points="363.091,268.562 352.753,268.388 352.740,276.870 363.108,276.842 " />
<polygon points="352.740,276.870 342.395,276.900 342.419,285.215 352.710,285.275 " />
<polygon points="352.710,285.275 342.419,285.215 342.448,294.044 352.830,294.001 " />
<polygon points="352.830,294.001 342.448,294.044 342.478,303.879 352.868,303.650 " />
<polygon points="352.736,250.129 342.358,249.932 342.431,259.482 352.753,259.760 " />
<polygon points="352.753,259.760 342.431,259.482 342.490,268.342 352.753,268.388 " />
<polygon points="352.753,268.388 342.490,268.342 342.395,276.900 352.740,276.870 " />
<polygon points="342.395,276.900 332.040,276.932 332.040,285.304 342.419,285.215 " />
<polygon points="342.419,285.215 332.040,285.304 331.941,294.283 342.448,294.044 " />
<polygon points="342.448,294.044 331.941,294.283 332.093,303.703 342.478,303.879 " />
<polygon points="342.358,249.932 331.977,250.135 331.897,259.754 342.431,259.482 " />
<polygon points="342.431,259.482 331.897,259.754 331.991,268.549 342.490,268.342 " />
<polygon points="342.490,268.342 331.991,268.549 332.040,276.932 342.395,276.900 " />
<polygon points="332.040,276.932 321.642,276.956 321.670,285.276 332.040,285.304 " />
<polygon points="332.040,285.304 321.670,285.276 321.626,294.125 331.941,294.283 " />
<polygon points="331.941,294.283 321.626,294.125 321.731,303.918 332.093,303.703 " />
<polygon points="331.977,250.135 321.598,249.946 321.598,259.778 331.897,259.754 " />
<polygon points="331.897,259.754 321.598,259.778 321.601,268.632 331.991,268.549 " />
<polygon points="331.991,268.549 321.601,268.632 321.642,276.956 332.040,276.932 " />
<polygon points="321.642,276.956 311.229,276.975 311.237,285.526 321.670,285.276 " />
<polygon points="321.670,285.276 311.237,285.526 311.194,294.217 321.626,294.125 " />
<polygon points="321.626,294.125 311.194,294.217 311.379,303.755 321.731,303.918 " />
<polygon points="321.598,249.946 311.222,250.139 311.331,259.709 321.598,259.778 " />
<polygon points="321.598,259.778 311.331,259.709 311.212,268.575 321.601,268.632 " />
<polygon points="311.229,276.975 321.642,276.956 321.601,268.632 311.212,268.575 " />
<polygon points="310.082,122.968 320.585,122.989 320.495,114.479 310.131,114.403 " />
<polygon points="320.561,105.668 310.093,105.659 310.131,114.403 320.495,114.479 " />
<polygon points="320.560,95.758 310.112,95.951 310.093,105.659 320.561,105.668 " />
<polygon points="320.752,140.406 310.147,140.309 310.164,149.998 320.607,150.199 " />
<polygon points="320.601,131.383 310.124,131.454 310.147,140.309 320.752,140.406 " />
<polygon points="320.585,122.989 310.082,122.968 310.124,131.454 320.601,131.383 " />
<polygon points="331.041,114.517 320.495,114.479 320.585,122.989 331.060,122.960 " />
<polygon points="331.151,105.410 320.561,105.668 320.495,114.479 331.041,114.517 " />
<polygon points="331.023,95.937 320.560,95.758 320.561,105.668 331.151,105.410 " />
<polygon points="331.079,140.292 320.752,140.406 320.607,150.199 331.071,150.021 " />
<polygon points="331.080,131.434 320.601,131.383 320.752,140.406 331.079,140.292 " />
<polygon points="331.060,122.960 320.585,122.989 320.601,131.383 331.080,131.434 " />
<polygon points="341.395,114.477 331.041,114.517 331.060,122.960 341.548,122.966 " />
<polygon points="341.510,105.349 331.151,105.410 331.041,114.517 341.395,114.477 " />
<polygon points="341.502,95.719 331.023,95.937 331.151,105.410 341.510,105.349 " />
<polygon points="341.569,140.292 331.079,140.292 331.071,150.021 341.567,150.237 " />
<polygon points="341.490,131.397 331.080,131.434 331.079,140.292 341.569,140.292 " />
<polygon points="341.548,122.966 331.060,122.960 331.080,131.434 341.490,131.397 " />
<polygon points="351.953,114.351 341.395,114.477 341.548,122.966 351.998,122.913 " />
<polygon points="351.996,105.640 341.510,105.349 341.395,114.477 351.953,114.351 " />
<polygon points="351.989,95.903 341.502,95.719 341.510,105.349 351.996,105.640 " />
<polygon points="352.072,140.278 341.569,140.292 341.567,150.237 352.079,150.045 " />
<polygon points="352.056,131.398 341.490,131.397 341.569,140.292 352.072,140.278 " />
<polygon points="351.998,122.913 341.548,122.966 341.490,131.397 352.056,131.398 " />
<polygon points="362.485,114.381 351.953,114.351 351.998,122.913 362.499,122.930 " />
<polygon points="362.278,105.405 351.996,105.640 351.953,114.351 362.485,114.381 " />
<polygon points="362.484,95.695 351.989,95.903 351.996,105.640 362.278,105.405 " />
<polygon points="362.577,140.251 352.072,140.278 352.079,150.045 362.619,150.241 " />
<polygon points="362.549,131.310 352.056,131.398 352.072,140.278 362.577,140.251 " />
<polygon points="362.499,122.930 351.998,122.913 352.056,131.398 362.549,131.310 " />
<polygon points="372.925,114.495 362.485,114.381 362.499,122.930 372.948,123.007 " />
<polygon points="372.815,105.409 362.278,105.405 362.485,114.381 372.925,114.495 " />
<polygon points="372.997,95.905 362.484,95.695 362.278,105.405 372.815,105.409 " />
<polygon points="373.120,140.484 362.577,140.251 362.619,150.241 373.182,149.983 " />
<polygon points="372.877,131.538 362.549,131.310 362.577,140.251 373.120,140.484 " />
<polygon points="372.948,123.007 362.499,122.930 362.549,131.310 372.877,131.538 " />
<polygon points="383.358,114.352 372.925,114.495 372.948,123.007 383.367,122.893 " />
<polygon points="383.351,105.676 372.815,105.409 372.925,114.495 383.358,114.352 " />
<polygon points="383.336,96.048 372.997,95.905 372.815,105.409 383.351,105.676 " />
<polygon points="383.554,140.344 373.120,140.484 373.182,149.983 383.547,149.740 " />
<polygon points="383.416,131.301 372.877,131.538 373.120,140.484 383.554,140.344 " />
<polygon points="383.367,122.893 372.948,123.007 372.877,131.538 383.416,131.301 " />
<polygon points="393.668,114.478 383.358,114.352 383.367,122.893 393.729,122.852 " />
<polygon points="393.751,105.730 383.351,105.676 383.358,114.352 393.668,114.478 " />
<polygon points="393.764,95.818 383.336,96.048 383.351,105.676 393.751,105.730 " />
<polygon points="393.887,139.999 383.554,140.344 383.547,149.740 393.981,149.886 " />
<polygon points="393.744,131.172 383.416,131.301 383.554,140.344 393.887,139.999 " />
<polygon points="393.729,122.852 383.367,122.893 383.416,131.301 393.744,131.172 " />
<polygon points="404.177,114.532 393.668,114.478 393.729,122.852 404.079,122.829 " />
<polygon points="404.142,105.730 393.751,105.730 393.668,114.478 404.177,114.532 " />
<polygon points="404.244,96.018 393.764,95.818 393.751,105.730 404.142,105.730 " />
<polygon points="404.269,139.864 393.887,139.999 393.981,149.886 404.443,149.576 " />
<polygon points="404.141,131.097 393.744,131.172 393.887,139.999 404.269,139.864 " />
<polygon points="404.079,122.829 393.729,122.852 393.744,131.172 404.141,131.097 " />
<polygon points="414.394,114.546 404.177,114.532 404.079,122.829 414.381,122.828 " />
<polygon points="414.433,105.858 404.142,105.730 404.177,114.532 414.394,114.546 " />
<polygon points="414.549,96.275 404.244,96.018 404.142,105.730 414.433,105.858 " />
<polygon points="414.478,139.697 404.269,139.864 404.443,149.576 414.709,149.260 " />
<polygon points="414.330,131.105 404.141,131.097 404.269,139.864 414.478,139.697 " />
<polygon points="414.381,122.828 404.079,122.829 404.141,131.097 414.330,131.105 " />
<polygon points="424.580,114.526 414.394,114.546 414.381,122.828 424.598,122.799 " />
<polygon points="424.609,105.958 414.433,105.858 414.394,114.546 424.580,114.526 " />
<polygon points="424.674,96.501 414.549,96.275 414.433,105.858 424.609,105.958 " />
<polygon points="424.712,139.555 414.478,139.697 414.709,149.260 424.811,148.999 " />
<polygon points="424.606,131.084 414.330,131.105 414.478,139.697 424.712,139.555 " />
<polygon points="424.598,122.799 414.381,122.828 414.330,131.105 424.606,131.084 " />
<polygon points="434.738,114.568 424.580,114.526 424.598,122.799 434.803,122.757 " />
<polygon points="434.587,105.805 424.609,105.958 424.580,114.526 434.738,114.568 " />
<polygon points="434.662,96.631 424.674,96.501 424.609,105.958 434.587,105.805 " />
<polygon points="434.811,139.584 424.712,139.555 424.811,148.999 434.789,148.841 " />
<polygon points="434.825,130.921 424.606,131.084 424.712,139.555 434.811,139.584 " />
<polygon points="434.803,122.757 424.598,122.799 424.606,131.084 434.825,130.921 " />
<polygon points="444.875,114.423 434.738,114.568 434.803,122.757 444.998,122.770 " />
<polygon points="444.765,105.660 434.587,105.805 434.738,114.568 444.875,114.423 " />
<polygon points="444.654,96.395 434.662,96.631 434.587,105.805 444.765,105.660 " />
<polygon points="444.916,139.589 434.811,139.584 434.789,148.841 444.769,149.049 " />
<polygon points="445.000,131.000 434.825,130.921 434.811,139.584 444.916,139.589 " />
<polygon points="444.998,122.770 434.803,122.757 434.825,130.921 445.000,131.000 " />
<polygon points="455.246,114.397 444.875,114.423 444.998,122.770 455.300,122.715 " />
<polygon points="455.055,105.647 444.765,105.660 444.875,114.423 455.246,114.397 " />
<polygon points="454.778,96.037 444.654,96.395 444.765,105.660 455.055,105.647 " />
<polygon points="455.161,140.108 444.916,139.589 444.769,149.049 454.887,149.374 " />
<polygon points="455.245,131.156 445.000,131.000 444.916,139.589 455.161,140.108 " />
<polygon points="455.300,122.715 444.998,122.770 445.000,131.000 455.245,131.156 " />
<polygon points="465.650,114.258 455.246,114.397 455.300,122.715 465.762,122.696 " />
<polygon points="465.456,105.075 455.055,105.647 455.246,114.397 465.650,114.258 " />
<polygon points="465.073,95.577 454.778,96.037 455.055,105.647 465.456,105.075 " />
<polygon points="465.427,140.088 455.161,140.108 454.887,149.374 465.176,149.784 " />
<polygon points="465.610,131.163 455.245,131.156 455.161,140.108 465.427,140.088 " />
<polygon points="465.762,122.696 455.300,122.715 455.245,131.156 465.610,131.163 " />
<polygon points="476.410,114.015 465.650,114.258 465.762,122.696 476.452,122.770 " />
<polygon points="475.998,105.012 465.456,105.075 465.650,114.258 476.410,114.015 " />
<polygon points="475.563,95.019 465.073,95.577 465.456,105.075 475.998,105.012 " />
<polygon points="476.161,140.501 465.427,140.088 465.176,149.784 475.612,150.259 " />
<polygon points="476.267,131.319 465.610,131.163 465.427,140.088 476.161,140.501 " />
<polygon points="476.452,122.770 465.762,122.696 465.610,131.163 476.267,131.319 " />
<polygon points="487.175,113.774 476.410,114.015 476.452,122.770 487.492,122.784 " />
<polygon points="486.665,104.425 475.998,105.012 476.410,114.015 487.175,113.774 " />
<polygon points="486.047,94.633 475.563,95.019 475.998,105.012 486.665,104.425 " />
<polygon points="486.684,140.967 476.161,140.501 475.612,150.259 486.008,150.619 " />
<polygon points="487.148,131.646 476.267,131.319 476.161,140.501 486.684,140.967 " />
<polygon points="487.492,122.784 476.452,122.770 476.267,131.319 487.148,131.646 " />
<polygon points="498.472,113.322 487.175,113.774 487.492,122.784 498.766,122.753 " />
<polygon points="497.722,103.698 486.665,104.425 487.175,113.774 498.472,113.322 " />
<polygon points="496.503,93.597 486.047,94.633 486.665,104.425 497.722,103.698 " />
<polygon points="497.615,141.636 486.684,140.967 486.008,150.619 496.336,151.640 " />
<polygon points="498.440,132.128 487.148,131.646 486.684,140.967 497.615,141.636 " />
<polygon points="498.766,122.753 487.492,122.784 487.148,131.646 498.440,132.128 " />
<polygon points="510.817,112.452 498.472,113.322 498.766,122.753 511.242,122.905 " />
<polygon points="509.130,102.128 497.722,103.698 498.472,113.322 510.817,112.452 " />
<polygon points="506.884,91.979 496.503,93.597 497.722,103.698 509.130,102.128 " />
<polygon points="508.777,143.291 497.615,141.636 496.336,151.640 506.538,153.262 " />
<polygon points="510.489,133.196 498.440,132.128 497.615,141.636 508.777,143.291 " />
<polygon points="511.242,122.905 498.766,122.753 498.440,132.128 510.489,133.196 " />
<polygon points="13.452,113.386 1.211,112.320 0.452,122.792 13.164,122.878 " />
<polygon points="14.309,103.640 2.944,102.077 1.211,112.320 13.452,113.386 " />
<polygon points="15.538,93.619 5.208,91.980 2.944,102.077 14.309,103.640 " />
<polygon points="14.096,142.117 2.571,143.704 4.817,153.998 15.345,152.389 " />
<polygon points="12.986,132.539 1.069,133.274 2.571,143.704 14.096,142.117 " />
<polygon points="13.164,122.878 0.452,122.792 1.069,133.274 12.986,132.539 " />
<polygon points="24.722,113.845 13.452,113.386 13.164,122.878 24.708,122.920 " />
<polygon points="25.345,104.527 14.309,103.640 13.452,113.386 24.722,113.845 " />
<polygon points="25.979,94.637 15.538,93.619 14.309,103.640 25.345,104.527 " />
<polygon points="25.311,141.383 14.096,142.117 15.345,152.389 25.911,151.396 " />
<polygon points="24.863,132.010 12.986,132.539 14.096,142.117 25.311,141.383 " />
<polygon points="24.708,122.920 13.164,122.878 12.986,132.539 24.863,132.010 " />
<polygon points="35.881,113.997 24.722,113.845 24.708,122.920 35.880,122.926 " />
<polygon points="36.096,104.931 25.345,104.527 24.722,113.845 35.881,113.997 " />
<polygon points="36.436,94.974 25.979,94.637 25.345,104.527 36.096,104.931 " />
<polygon points="36.172,140.927 25.311,141.383 25.911,151.396 36.519,151.090 " />
<polygon points="35.949,131.732 24.863,132.010 25.311,141.383 36.172,140.927 " />
<polygon points="35.880,122.926 24.708,122.920 24.863,132.010 35.949,131.732 " />
<polygon points="46.802,114.295 35.881,113.997 35.880,122.926 46.726,122.925 " />
<polygon points="46.905,105.149 36.096,104.931 35.881,113.997 46.802,114.295 " />
<polygon points="47.083,95.044 36.436,94.974 36.096,104.931 46.905,105.149 " />
<polygon points="46.987,140.944 36.172,140.927 36.519,151.090 47.184,150.683 " />
<polygon points="46.819,131.560 35.949,131.732 36.172,140.927 46.987,140.944 " />
<polygon points="46.726,122.925 35.880,122.926 35.949,131.732 46.819,131.560 " />
<polygon points="57.519,114.301 46.802,114.295 46.726,122.925 57.505,122.929 " />
<polygon points="57.730,105.163 46.905,105.149 46.802,114.295 57.519,114.301 " />
<polygon points="57.706,95.388 47.083,95.044 46.905,105.149 57.730,105.163 " />
<polygon points="57.610,140.551 46.987,140.944 47.184,150.683 57.705,150.377 " />
<polygon points="57.483,131.649 46.819,131.560 46.987,140.944 57.610,140.551 " />
<polygon points="57.505,122.929 46.726,122.925 46.819,131.560 57.483,131.649 " />
<polygon points="68.116,114.263 57.519,114.301 57.505,122.929 68.180,122.901 " />
<polygon points="68.230,105.373 57.730,105.163 57.519,114.301 68.116,114.263 " />
<polygon points="68.326,95.288 57.706,95.388 57.730,105.163 68.230,105.373 " />
<polygon points="68.223,140.461 57.610,140.551 57.705,150.377 68.289,150.515 " />
<polygon points="68.181,131.427 57.483,131.649 57.610,140.551 68.223,140.461 " />
<polygon points="68.180,122.901 57.505,122.929 57.483,131.649 68.181,131.427 " />
<polygon points="78.837,114.274 68.116,114.263 68.180,122.901 78.779,122.962 " />
<polygon points="78.683,105.417 68.230,105.373 68.116,114.263 78.837,114.274 " />
<polygon points="78.964,95.569 68.326,95.288 68.230,105.373 78.683,105.417 " />
<polygon points="78.553,140.607 68.223,140.461 68.289,150.515 78.905,150.279 " />
<polygon points="78.696,131.512 68.181,131.427 68.223,140.461 78.553,140.607 " />
<polygon points="78.779,122.962 68.180,122.901 68.181,131.427 78.696,131.512 " />
<polygon points="89.245,114.454 78.837,114.274 78.779,122.962 89.344,122.957 " />
<polygon points="89.377,105.498 78.683,105.417 78.837,114.274 89.245,114.454 " />
<polygon points="89.440,95.789 78.964,95.569 78.683,105.417 89.377,105.498 " />
<polygon points="89.133,140.567 78.553,140.607 78.905,150.279 89.369,150.101 " />
<polygon points="89.218,131.428 78.696,131.512 78.553,140.607 89.133,140.567 " />
<polygon points="89.344,122.957 78.779,122.962 78.696,131.512 89.218,131.428 " />
<polygon points="99.921,114.463 89.245,114.454 89.344,122.957 99.849,122.962 " />
<polygon points="99.990,105.598 89.377,105.498 89.245,114.454 99.921,114.463 " />
<polygon points="99.970,95.675 89.440,95.789 89.377,105.498 99.990,105.598 " />
<polygon points="99.660,140.547 89.133,140.567 89.369,150.101 99.895,150.254 " />
<polygon points="99.749,131.518 89.218,131.428 89.133,140.567 99.660,140.547 " />
<polygon points="99.849,122.962 89.344,122.957 89.218,131.428 99.749,131.518 " />
<polygon points="110.236,114.444 99.921,114.463 99.849,122.962 110.317,122.960 " />
<polygon points="110.362,105.720 99.990,105.598 99.921,114.463 110.236,114.444 " />
<polygon points="110.477,95.962 99.970,95.675 99.990,105.598 110.362,105.720 " />
<polygon points="110.326,140.246 99.660,140.547 99.895,150.254 110.404,150.007 " />
<polygon points="110.299,131.400 99.749,131.518 99.660,140.547 110.326,140.246 " />
<polygon points="110.317,122.960 99.849,122.962 99.749,131.518 110.299,131.400 " />
<polygon points="120.739,114.564 110.236,114.444 110.317,122.960 120.752,123.026 " />
<polygon points="120.755,105.775 110.362,105.720 110.236,114.444 120.739,114.564 " />
<polygon points="120.770,96.189 110.477,95.962 110.362,105.720 120.755,105.775 " />
<polygon points="120.571,140.335 110.326,140.246 110.404,150.007 120.699,149.817 " />
<polygon points="120.762,131.564 110.299,131.400 110.326,140.246 120.571,140.335 " />
<polygon points="120.752,123.026 110.317,122.960 110.299,131.400 120.762,131.564 " />
<polygon points="131.183,114.603 120.739,114.564 120.752,123.026 131.163,123.045 " />
<polygon points="131.352,105.458 120.755,105.775 120.739,114.564 131.183,114.603 " />
<polygon points="131.073,95.988 120.770,96.189 120.755,105.775 131.352,105.458 " />
<polygon points="131.112,140.292 120.571,140.335 120.699,149.817 131.001,150.053 " />
<polygon points="131.113,131.515 120.762,131.564 120.571,140.335 131.112,140.292 " />
<polygon points="131.163,123.045 120.752,123.026 120.762,131.564 131.113,131.515 " />
<polygon points="141.673,114.430 131.183,114.603 131.163,123.045 141.627,123.030 " />
<polygon points="141.789,105.577 131.352,105.458 131.183,114.603 141.673,114.430 " />
<polygon points="141.597,95.746 131.073,95.988 131.352,105.458 141.789,105.577 " />
<polygon points="141.449,140.502 131.112,140.292 131.001,150.053 141.526,150.331 " />
<polygon points="141.649,131.434 131.113,131.515 131.112,140.292 141.449,140.502 " />
<polygon points="141.627,123.030 131.163,123.045 131.113,131.515 141.649,131.434 " />
<polygon points="152.155,114.550 141.673,114.430 141.627,123.030 152.157,123.024 " />
<polygon points="152.132,105.668 141.789,105.577 141.673,114.430 152.155,114.550 " />
<polygon points="152.100,95.927 141.597,95.746 141.789,105.577 152.132,105.668 " />
<polygon points="152.101,140.442 141.449,140.502 141.526,150.331 152.032,150.187 " />
<polygon points="152.159,131.547 141.649,131.434 141.449,140.502 152.101,140.442 " />
<polygon points="152.157,123.024 141.627,123.030 141.649,131.434 152.159,131.547 " />
<polygon points="162.776,114.580 152.155,114.550 152.157,123.024 162.706,123.075 " />
<polygon points="162.885,105.458 152.132,105.668 152.155,114.550 162.776,114.580 " />
<polygon points="162.563,95.699 152.100,95.927 152.132,105.668 162.885,105.458 " />
<polygon points="162.778,140.587 152.101,140.442 152.032,150.187 162.497,150.456 " />
<polygon points="162.664,131.576 152.159,131.547 152.101,140.442 162.778,140.587 " />
<polygon points="162.706,123.075 152.157,123.024 152.159,131.547 162.664,131.576 " />
<polygon points="173.410,114.529 162.776,114.580 162.706,123.075 173.281,123.154 " />
<polygon points="173.281,105.565 162.885,105.458 162.776,114.580 173.410,114.529 " />
<polygon points="173.254,95.447 162.563,95.699 162.885,105.458 173.281,105.565 " />
<polygon points="173.253,140.637 162.778,140.587 162.497,150.456 173.186,150.754 " />
<polygon points="173.203,131.708 162.664,131.576 162.778,140.587 173.253,140.637 " />
<polygon points="173.281,123.154 162.706,123.075 162.664,131.576 173.203,131.708 " />
<polygon points="183.962,114.432 173.410,114.529 173.281,123.154 183.914,123.118 " />
<polygon points="183.881,105.557 173.281,105.565 173.410,114.529 183.962,114.432 " />
<polygon points="183.935,95.651 173.254,95.447 173.281,105.565 183.881,105.557 " />
<polygon points="183.894,140.677 173.253,140.637 173.186,150.754 183.866,150.592 " />
<polygon points="183.910,131.680 173.203,131.708 173.253,140.637 183.894,140.677 " />
<polygon points="183.914,123.118 173.281,123.154 173.203,131.708 183.910,131.680 " />
<polygon points="194.528,114.643 183.962,114.432 183.914,123.118 194.548,123.106 " />
<polygon points="194.569,105.592 183.881,105.557 183.962,114.432 194.528,114.643 " />
<polygon points="194.620,95.461 183.935,95.651 183.881,105.557 194.569,105.592 " />
<polygon points="194.437,140.717 183.894,140.677 183.866,150.592 194.559,150.824 " />
<polygon points="194.472,131.645 183.910,131.680 183.894,140.677 194.437,140.717 " />
<polygon points="194.548,123.106 183.914,123.118 183.910,131.680 194.472,131.645 " />
<polygon points="205.255,114.583 194.528,114.643 194.548,123.106 205.136,123.158 " />
<polygon points="205.054,105.354 194.569,105.592 194.528,114.643 205.255,114.583 " />
<polygon points="205.330,95.733 194.620,95.461 194.569,105.592 205.054,105.354 " />
<polygon points="205.191,140.633 194.437,140.717 194.559,150.824 205.280,150.594 " />
<polygon points="205.202,131.759 194.472,131.645 194.437,140.717 205.191,140.633 " />
<polygon points="205.136,123.158 194.548,123.106 194.472,131.645 205.202,131.759 " />
<polygon points="215.633,114.630 205.255,114.583 205.136,123.158 215.699,123.202 " />
<polygon points="215.747,105.813 205.054,105.354 205.255,114.583 215.633,114.630 " />
<polygon points="215.840,95.984 205.330,95.733 205.054,105.354 215.747,105.813 " />
<polygon points="215.683,140.838 205.191,140.633 205.280,150.594 215.801,150.382 " />
<polygon points="215.705,131.686 205.202,131.759 205.191,140.633 215.683,140.838 " />
<polygon points="215.699,123.202 205.136,123.158 205.202,131.759 215.705,131.686 " />
<polygon points="226.198,114.734 215.633,114.630 215.699,123.202 226.234,123.210 " />
<polygon points="226.366,105.602 215.747,105.813 215.633,114.630 226.198,114.734 " />
<polygon points="226.221,96.137 215.840,95.984 215.747,105.813 226.366,105.602 " />
<polygon points="226.093,140.662 215.683,140.838 215.801,150.382 226.198,150.261 " />
<polygon points="226.273,131.649 215.705,131.686 215.683,140.838 226.093,140.662 " />
<polygon points="226.234,123.210 215.699,123.202 215.705,131.686 226.273,131.649 " />
<polygon points="236.552,114.640 226.198,114.734 226.234,123.210 236.698,123.176 " />
<polygon points="236.780,105.581 226.366,105.602 226.198,114.734 236.552,114.640 " />
<polygon points="236.716,95.915 226.221,96.137 226.366,105.602 236.780,105.581 " />
<polygon points="236.859,140.736 226.093,140.662 226.198,150.261 236.730,150.511 " />
<polygon points="236.809,131.809 226.273,131.649 226.093,140.662 236.859,140.736 " />
<polygon points="236.698,123.176 226.234,123.210 226.273,131.649 236.809,131.809 " />
<polygon points="247.196,114.657 236.552,114.640 236.698,123.176 247.186,123.122 " />
<polygon points="247.172,105.895 236.780,105.581 236.552,114.640 247.196,114.657 " />
<polygon points="247.236,96.140 236.716,95.915 236.780,105.581 247.172,105.895 " />
<polygon points="247.230,140.480 236.859,140.736 236.730,150.511 247.303,150.297 " />
<polygon points="247.230,131.595 236.809,131.809 236.859,140.736 247.230,140.480 " />
<polygon points="247.186,123.122 236.698,123.176 236.809,131.809 247.230,131.595 " />
<polygon points="257.552,114.585 247.196,114.657 247.186,123.122 257.651,123.122 " />
<polygon points="257.652,105.862 247.172,105.895 247.196,114.657 257.552,114.585 " />
<polygon points="257.531,96.327 247.236,96.140 247.172,105.895 257.652,105.862 " />
<polygon points="257.593,140.451 247.230,140.480 247.303,150.297 257.684,150.101 " />
<polygon points="257.691,131.675 247.230,131.595 247.230,140.480 257.593,140.451 " />
<polygon points="257.651,123.122 247.186,123.122 247.230,131.595 257.691,131.675 " />
<polygon points="268.027,114.677 257.552,114.585 257.651,123.122 268.101,123.090 " />
<polygon points="267.930,105.822 257.652,105.862 257.552,114.585 268.027,114.677 " />
<polygon points="267.811,96.087 257.531,96.327 257.652,105.862 267.930,105.822 " />
<polygon points="267.997,140.653 257.593,140.451 257.684,150.101 268.107,150.297 " />
<polygon points="268.056,131.643 257.691,131.675 257.593,140.451 267.997,140.653 " />
<polygon points="268.101,123.090 257.651,123.122 257.691,131.675 268.056,131.643 " />
<polygon points="278.512,114.638 268.027,114.677 268.101,123.090 278.579,123.099 " />
<polygon points="278.454,105.700 267.930,105.822 268.027,114.677 278.512,114.638 " />
<polygon points="278.286,95.784 267.811,96.087 267.930,105.822 278.454,105.700 " />
<polygon points="278.613,140.446 267.997,140.653 268.107,150.297 278.577,150.189 " />
<polygon points="278.608,131.523 268.056,131.643 267.997,140.653 278.613,140.446 " />
<polygon points="278.579,123.099 268.101,123.090 268.056,131.643 278.608,131.523 " />
<polygon points="289.049,114.618 278.512,114.638 278.579,123.099 289.082,123.039 " />
<polygon points="289.018,105.611 278.454,105.700 278.512,114.638 289.049,114.618 " />
<polygon points="288.984,95.494 278.286,95.784 278.454,105.700 289.018,105.611 " />
<polygon points="288.972,140.650 278.613,140.446 278.577,150.189 289.151,150.440 " />
<polygon points="289.113,131.452 278.608,131.523 278.613,140.446 288.972,140.650 " />
<polygon points="289.082,123.039 278.579,123.099 278.608,131.523 289.113,131.452 " />
<polygon points="299.414,114.422 289.049,114.618 289.082,123.039 299.575,123.004 " />
<polygon points="299.494,105.291 289.018,105.611 289.049,114.618 299.414,114.422 " />
<polygon points="299.676,95.728 288.984,95.494 289.018,105.611 299.494,105.291 " />
<polygon points="299.457,140.578 288.972,140.650 289.151,150.440 299.763,150.209 " />
<polygon points="299.623,131.452 289.113,131.452 288.972,140.650 299.457,140.578 " />
<polygon points="299.575,123.004 289.082,123.039 289.113,131.452 299.623,131.452 " />
<polygon points="310.082,122.968 310.131,114.403 299.414,114.422 299.575,123.004 " />
<polygon points="310.093,105.659 299.494,105.291 299.414,114.422 310.131,114.403 " />
<polygon points="310.112,95.951 299.676,95.728 299.494,105.291 310.093,105.659 " />
<polygon points="310.147,140.309 299.457,140.578 299.763,150.209 310.164,149.998 " />
<polygon points="310.124,131.454 299.623,131.452 299.457,140.578 310.147,140.309 " />
<polygon points="310.082,122.968 299.575,123.004 299.623,131.452 310.124,131.454 " />
<polygon points="310.562,403.968 300.060,404.069 300.151,412.494 310.636,412.452 " />
<polygon points="310.636,412.452 300.151,412.494 300.224,421.381 310.579,421.503 " />
<polygon points="310.579,421.503 300.224,421.381 300.343,431.195 310.720,430.969 " />
<polygon points="310.458,376.788 299.854,376.587 299.909,386.654 310.316,386.412 " />
<polygon points="310.316,386.412 299.909,386.654 300.007,395.650 310.517,395.509 " />
<polygon points="310.562,403.968 310.517,395.509 300.007,395.650 300.060,404.069 " />
<polygon points="300.060,404.069 289.574,404.173 289.748,412.623 300.151,412.494 " />
<polygon points="300.151,412.494 289.748,412.623 289.620,421.770 300.224,421.381 " />
<polygon points="300.224,421.381 289.620,421.770 289.781,431.449 300.343,431.195 " />
<polygon points="299.854,376.587 289.183,376.866 289.573,386.639 299.909,386.654 " />
<polygon points="299.909,386.654 289.573,386.639 289.438,395.696 300.007,395.650 " />
<polygon points="300.007,395.650 289.438,395.696 289.574,404.173 300.060,404.069 " />
<polygon points="289.574,404.173 279.112,404.282 279.185,412.703 289.748,412.623 " />
<polygon points="289.748,412.623 279.185,412.703 279.239,421.530 289.620,421.770 " />
<polygon points="289.620,421.770 279.239,421.530 279.266,431.254 289.781,431.449 " />
<polygon points="289.183,376.866 278.668,377.173 278.851,386.968 289.573,386.639 " />
<polygon points="289.573,386.639 278.851,386.968 279.012,395.844 289.438,395.696 " />
<polygon points="289.438,395.696 279.012,395.844 279.112,404.282 289.574,404.173 " />
<polygon points="279.112,404.282 268.673,404.316 268.727,412.736 279.185,412.703 " />
<polygon points="279.185,412.703 268.727,412.736 268.791,421.562 279.239,421.530 " />
<polygon points="279.239,421.530 268.791,421.562 268.837,431.458 279.266,431.254 " />
<polygon points="278.668,377.173 268.285,377.468 268.438,387.136 278.851,386.968 " />
<polygon points="278.851,386.968 268.438,387.136 268.504,395.906 279.012,395.844 " />
<polygon points="279.012,395.844 268.504,395.906 268.673,404.316 279.112,404.282 " />
<polygon points="268.673,404.316 258.249,404.408 258.341,412.831 268.727,412.736 " />
<polygon points="268.727,412.736 258.341,412.831 258.248,421.765 268.791,421.562 " />
<polygon points="268.791,421.562 258.248,421.765 258.418,431.320 268.837,431.458 " />
<polygon points="268.285,377.468 258.046,377.720 258.104,387.228 268.438,387.136 " />
<polygon points="268.438,387.136 258.104,387.228 258.168,396.032 268.504,395.906 " />
<polygon points="268.504,395.906 258.168,396.032 258.249,404.408 268.673,404.316 " />
<polygon points="258.249,404.408 247.813,404.458 247.788,412.881 258.341,412.831 " />
<polygon points="258.341,412.831 247.788,412.881 248.055,421.797 258.248,421.765 " />
<polygon points="258.248,421.765 248.055,421.797 248.046,431.555 258.418,431.320 " />
<polygon points="258.046,377.720 247.798,377.587 247.767,387.306 258.104,387.228 " />
<polygon points="258.104,387.228 247.767,387.306 247.780,396.062 258.168,396.032 " />
<polygon points="258.168,396.032 247.780,396.062 247.813,404.458 258.249,404.408 " />
<polygon points="247.813,404.458 237.405,404.503 237.408,412.890 247.788,412.881 " />
<polygon points="247.788,412.881 237.408,412.890 237.497,422.142 248.055,421.797 " />
<polygon points="248.055,421.797 237.497,422.142 237.488,431.800 248.046,431.555 " />
<polygon points="247.798,377.587 237.348,377.384 237.330,387.273 247.767,387.306 " />
<polygon points="247.767,387.306 237.330,387.273 237.364,395.983 247.780,396.062 " />
<polygon points="247.780,396.062 237.364,395.983 237.405,404.503 247.813,404.458 " />
<polygon points="237.405,404.503 226.936,404.551 227.006,413.128 237.408,412.890 " />
<polygon points="237.408,412.890 227.006,413.128 226.969,421.893 237.497,422.142 " />
<polygon points="237.497,422.142 226.969,421.893 226.971,431.577 237.488,431.800 " />
<polygon points="237.348,377.384 226.908,377.601 226.760,387.186 237.330,387.273 " />
<polygon points="237.330,387.273 226.760,387.186 226.847,396.097 237.364,395.983 " />
<polygon points="237.364,395.983 226.847,396.097 226.936,404.551 237.405,404.503 " />
<polygon points="226.936,404.551 216.435,404.587 216.454,413.053 227.006,413.128 " />
<polygon points="227.006,413.128 216.454,413.053 216.663,422.058 226.969,421.893 " />
<polygon points="226.969,421.893 216.663,422.058 216.589,431.722 226.971,431.577 " />
<polygon points="226.908,377.601 216.564,377.439 216.261,387.029 226.760,387.186 " />
<polygon points="226.760,387.186 216.261,387.029 216.465,396.052 226.847,396.097 " />
<polygon points="226.847,396.097 216.465,396.052 216.435,404.587 226.936,404.551 " />
<polygon points="216.435,404.587 205.909,404.499 205.792,413.299 216.454,413.053 " />
<polygon points="216.454,413.053 205.792,413.299 206.023,422.264 216.663,422.058 " />
<polygon points="216.663,422.058 206.023,422.264 206.082,431.959 216.589,431.722 " />
<polygon points="216.564,377.439 206.078,377.180 205.808,387.081 216.261,387.029 " />
<polygon points="216.261,387.029 205.808,387.081 205.839,395.900 216.465,396.052 " />
<polygon points="216.465,396.052 205.839,395.900 205.909,404.499 216.435,404.587 " />
<polygon points="205.909,404.499 195.315,404.515 195.348,413.229 205.792,413.299 " />
<polygon points="205.792,413.299 195.348,413.229 195.203,422.157 206.023,422.264 " />
<polygon points="206.023,422.264 195.203,422.157 195.370,432.213 206.082,431.959 " />
<polygon points="206.078,377.180 195.384,376.898 195.328,387.018 205.808,387.081 " />
<polygon points="205.808,387.081 195.328,387.018 195.295,395.883 205.839,395.900 " />
<polygon points="205.839,395.900 195.295,395.883 195.315,404.515 205.909,404.499 " />
<polygon points="195.315,404.515 184.688,404.537 184.619,413.178 195.348,413.229 " />
<polygon points="195.348,413.229 184.619,413.178 184.689,422.090 195.203,422.157 " />
<polygon points="195.203,422.157 184.689,422.090 184.680,432.004 195.370,432.213 " />
<polygon points="195.384,376.898 184.706,377.079 184.693,386.987 195.328,387.018 " />
<polygon points="195.328,387.018 184.693,386.987 184.685,395.979 195.295,395.883 " />
<polygon points="195.295,395.883 184.685,395.979 184.688,404.537 195.315,404.515 " />
<polygon points="184.688,404.537 174.059,404.557 174.142,413.042 184.619,413.178 " />
<polygon points="184.619,413.178 174.142,413.042 174.048,422.068 184.689,422.090 " />
<polygon points="184.689,422.090 174.048,422.068 173.998,432.187 184.680,432.004 " />
<polygon points="184.706,377.079 174.024,376.867 173.906,386.900 184.693,386.987 " />
<polygon points="184.693,386.987 173.906,386.900 174.061,396.045 184.685,395.979 " />
<polygon points="184.685,395.979 174.061,396.045 174.059,404.557 184.688,404.537 " />
<polygon points="174.059,404.557 163.481,404.512 163.488,413.014 174.142,413.042 " />
<polygon points="174.142,413.042 163.488,413.014 163.422,421.988 174.048,422.068 " />
<polygon points="174.048,422.068 163.422,421.988 163.302,431.909 173.998,432.187 " />
<polygon points="174.024,376.867 163.326,377.114 163.417,387.037 173.906,386.900 " />
<polygon points="173.906,386.900 163.417,387.037 163.497,395.857 174.061,396.045 " />
<polygon points="174.061,396.045 163.497,395.857 163.481,404.512 174.059,404.557 " />
<polygon points="163.481,404.512 152.918,404.471 152.930,413.001 163.488,413.014 " />
<polygon points="163.488,413.014 152.930,413.001 152.816,422.150 163.422,421.988 " />
<polygon points="163.422,421.988 152.816,422.150 152.828,431.656 163.302,431.909 " />
<polygon points="163.326,377.114 152.848,377.338 152.744,386.918 163.417,387.037 " />
<polygon points="163.417,387.037 152.744,386.918 152.909,395.989 163.497,395.857 " />
<polygon points="163.497,395.857 152.909,395.989 152.918,404.471 163.481,404.512 " />
<polygon points="152.918,404.471 142.385,404.497 142.410,412.902 152.930,413.001 " />
<polygon points="152.930,413.001 142.410,412.902 142.371,421.848 152.816,422.150 " />
<polygon points="152.816,422.150 142.371,421.848 142.312,431.815 152.828,431.656 " />
<polygon points="152.848,377.338 142.323,377.155 142.367,387.133 152.744,386.918 " />
<polygon points="152.744,386.918 142.367,387.133 142.402,396.084 152.909,395.989 " />
<polygon points="152.909,395.989 142.402,396.084 142.385,404.497 152.918,404.471 " />
<polygon points="142.385,404.497 131.921,404.502 132.013,413.033 142.410,412.902 " />
<polygon points="142.410,412.902 132.013,413.033 131.876,421.781 142.371,421.848 " />
<polygon points="142.371,421.848 131.876,421.781 131.776,431.549 142.312,431.815 " />
<polygon points="142.323,377.155 131.770,377.404 131.759,387.084 142.367,387.133 " />
<polygon points="142.367,387.133 131.759,387.084 131.901,396.066 142.402,396.084 " />
<polygon points="142.402,396.084 131.901,396.066 131.921,404.502 142.385,404.497 " />
<polygon points="131.921,404.502 121.468,404.526 121.480,412.952 132.013,413.033 " />
<polygon points="132.013,413.033 121.480,412.952 121.396,421.762 131.876,421.781 " />
<polygon points="131.876,421.781 121.396,421.762 121.466,431.320 131.776,431.549 " />
<polygon points="131.770,377.404 121.432,377.623 121.443,387.233 131.759,387.084 " />
<polygon points="131.759,387.084 121.443,387.233 121.446,396.055 131.901,396.066 " />
<polygon points="131.901,396.066 121.446,396.055 121.468,404.526 131.921,404.502 " />
<polygon points="121.468,404.526 111.037,404.487 111.039,412.925 121.480,412.952 " />
<polygon points="121.480,412.952 111.039,412.925 111.176,421.883 121.396,421.762 " />
<polygon points="121.396,421.762 111.176,421.883 111.177,431.515 121.466,431.320 " />
<polygon points="121.432,377.623 111.098,377.429 110.911,387.160 121.443,387.233 " />
<polygon points="121.443,387.233 110.911,387.160 110.998,396.106 121.446,396.055 " />
<polygon points="121.446,396.055 110.998,396.106 111.037,404.487 121.468,404.526 " />
<polygon points="111.037,404.487 100.560,404.502 100.548,412.943 111.039,412.925 " />
<polygon points="111.039,412.925 100.548,412.943 100.611,421.816 111.176,421.883 " />
<polygon points="111.176,421.883 100.611,421.816 100.689,431.775 111.177,431.515 " />
<polygon points="111.098,377.429 100.579,377.223 100.542,387.215 110.911,387.160 " />
<polygon points="110.911,387.160 100.542,387.215 100.581,395.996 110.998,396.106 " />
<polygon points="110.998,396.106 100.581,395.996 100.560,404.502 111.037,404.487 " />
<polygon points="100.560,404.502 90.049,404.533 89.955,413.067 100.548,412.943 " />
<polygon points="100.548,412.943 89.955,413.067 90.111,421.952 100.611,421.816 " />
<polygon points="100.611,421.816 90.111,421.952 90.196,431.673 100.689,431.775 " />
<polygon points="100.579,377.223 90.071,377.374 89.917,386.906 100.542,387.215 " />
<polygon points="100.542,387.215 89.917,386.906 90.005,396.080 100.581,395.996 " />
<polygon points="100.581,395.996 90.005,396.080 90.049,404.533 100.560,404.502 " />
<polygon points="90.049,404.533 79.473,404.550 79.496,413.042 89.955,413.067 " />
<polygon points="89.955,413.067 79.496,413.042 79.411,422.095 90.111,421.952 " />
<polygon points="90.111,421.952 79.411,422.095 79.724,431.949 90.196,431.673 " />
<polygon points="90.071,377.374 79.614,377.173 79.509,387.080 89.917,386.906 " />
<polygon points="89.917,386.906 79.509,387.080 79.453,396.003 90.005,396.080 " />
<polygon points="90.005,396.080 79.453,396.003 79.473,404.550 90.049,404.533 " />
<polygon points="79.473,404.550 68.855,404.513 68.810,413.216 79.496,413.042 " />
<polygon points="79.496,413.042 68.810,413.216 68.743,422.388 79.411,422.095 " />
<polygon points="79.411,422.095 68.743,422.388 69.050,432.250 79.724,431.949 " />
<polygon points="79.614,377.173 68.989,376.901 68.894,386.969 79.509,387.080 " />
<polygon points="79.509,387.080 68.894,386.969 68.794,395.869 79.453,396.003 " />
<polygon points="79.453,396.003 68.794,395.869 68.855,404.513 79.473,404.550 " />
<polygon points="68.855,404.513 58.110,404.570 58.233,413.265 68.810,413.216 " />
<polygon points="68.810,413.216 58.233,413.265 58.082,422.517 68.743,422.388 " />
<polygon points="68.743,422.388 58.082,422.517 58.404,432.147 69.050,432.250 " />
<polygon points="68.989,376.901 58.385,377.003 58.261,386.856 68.894,386.969 " />
<polygon points="68.894,386.969 58.261,386.856 58.094,395.891 68.794,395.869 " />
<polygon points="68.794,395.869 58.094,395.891 58.110,404.570 68.855,404.513 " />
<polygon points="58.110,404.570 47.323,404.545 47.415,413.233 58.233,413.265 " />
<polygon points="58.233,413.265 47.415,413.233 47.468,422.735 58.082,422.517 " />
<polygon points="58.082,422.517 47.468,422.735 47.814,432.486 58.404,432.147 " />
<polygon points="58.385,377.003 47.825,376.661 47.574,386.654 58.261,386.856 " />
<polygon points="58.261,386.856 47.574,386.654 47.392,395.701 58.094,395.891 " />
<polygon points="58.094,395.891 47.392,395.701 47.323,404.545 58.110,404.570 " />
<polygon points="47.323,404.545 36.404,404.539 36.471,413.414 47.415,413.233 " />
<polygon points="47.415,413.233 36.471,413.414 36.529,422.803 47.468,422.735 " />
<polygon points="47.468,422.735 36.529,422.803 37.069,432.922 47.814,432.486 " />
<polygon points="47.825,376.661 37.110,376.220 36.732,386.428 47.574,386.654 " />
<polygon points="47.574,386.654 36.732,386.428 36.486,395.674 47.392,395.701 " />
<polygon points="47.392,395.701 36.486,395.674 36.404,404.539 47.323,404.545 " />
<polygon points="36.404,404.539 24.911,404.566 25.286,413.739 36.471,413.414 " />
<polygon points="36.471,413.414 25.286,413.739 25.733,423.146 36.529,422.803 " />
<polygon points="36.529,422.803 25.733,423.146 26.373,433.254 37.069,432.922 " />
<polygon points="37.110,376.220 26.449,375.882 25.798,385.938 36.732,386.428 " />
<polygon points="36.732,386.428 25.798,385.938 25.326,395.357 36.486,395.674 " />
<polygon points="36.486,395.674 25.326,395.357 24.911,404.566 36.404,404.539 " />
<polygon points="24.911,404.566 13.465,404.486 13.650,414.113 25.286,413.739 " />
<polygon points="25.286,413.739 13.650,414.113 14.500,423.953 25.733,423.146 " />
<polygon points="25.733,423.146 14.500,423.953 15.710,434.279 26.373,433.254 " />
<polygon points="26.449,375.882 15.856,374.859 14.604,385.085 25.798,385.938 " />
<polygon points="25.798,385.938 14.604,385.085 13.563,394.701 25.326,395.357 " />
<polygon points="25.326,395.357 13.563,394.701 13.465,404.486 24.911,404.566 " />
<polygon points="13.465,404.486 0.615,404.414 1.258,415.006 13.650,414.113 " />
<polygon points="13.650,414.113 1.258,415.006 2.795,425.536 14.500,423.953 " />
<polygon points="14.500,423.953 2.795,425.536 5.084,435.924 15.710,434.279 " />
<polygon points="15.856,374.859 5.383,373.214 3.104,383.452 14.604,385.085 " />
<polygon points="14.604,385.085 3.104,383.452 1.365,393.822 13.563,394.701 " />
<polygon points="13.563,394.701 1.365,393.822 0.615,404.414 13.465,404.486 " />
<polygon points="511.385,404.079 499.112,404.050 498.596,413.279 510.633,414.360 " />
<polygon points="510.633,414.360 498.596,413.279 497.725,422.831 508.918,424.453 " />
<polygon points="508.918,424.453 497.725,422.831 496.470,432.794 506.671,434.424 " />
<polygon points="507.020,373.213 496.663,374.834 497.884,384.910 509.268,383.338 " />
<polygon points="509.268,383.338 497.884,384.910 498.802,394.680 510.957,393.642 " />
<polygon points="510.957,393.642 498.802,394.680 499.112,404.050 511.385,404.079 " />
<polygon points="499.112,404.050 487.540,403.879 487.485,412.904 498.596,413.279 " />
<polygon points="498.596,413.279 487.485,412.904 486.770,422.014 497.725,422.831 " />
<polygon points="497.725,422.831 486.770,422.014 486.140,431.755 496.470,432.794 " />
<polygon points="496.663,374.834 486.233,375.874 486.852,385.658 497.884,384.910 " />
<polygon points="497.884,384.910 486.852,385.658 487.360,394.955 498.802,394.680 " />
<polygon points="498.802,394.680 487.360,394.955 487.540,403.879 499.112,404.050 " />
<polygon points="487.540,403.879 476.705,403.952 476.652,412.552 487.485,412.904 " />
<polygon points="487.485,412.904 476.652,412.552 476.183,421.450 486.770,422.014 " />
<polygon points="486.770,422.014 476.183,421.450 475.742,431.363 486.140,431.755 " />
<polygon points="486.233,375.874 475.784,376.267 476.220,386.224 486.852,385.658 " />
<polygon points="486.852,385.658 476.220,386.224 476.483,395.285 487.360,394.955 " />
<polygon points="487.360,394.955 476.483,395.285 476.705,403.952 487.540,403.879 " />
<polygon points="476.705,403.952 466.006,403.847 465.939,412.412 476.652,412.552 " />
<polygon points="476.652,412.552 465.939,412.412 465.683,421.097 476.183,421.450 " />
<polygon points="476.183,421.450 465.683,421.097 465.331,430.810 475.742,431.363 " />
<polygon points="475.784,376.267 465.337,376.828 465.693,386.570 476.220,386.224 " />
<polygon points="476.220,386.224 465.693,386.570 465.887,395.315 476.483,395.285 " />
<polygon points="476.483,395.285 465.887,395.315 466.006,403.847 476.705,403.952 " />
<polygon points="466.006,403.847 455.586,403.848 455.533,412.130 465.939,412.412 " />
<polygon points="465.939,412.412 455.533,412.130 455.374,420.819 465.683,421.097 " />
<polygon points="465.683,421.097 455.374,420.819 455.110,430.362 465.331,430.810 " />
<polygon points="465.337,376.828 455.093,377.286 455.363,386.849 465.693,386.570 " />
<polygon points="465.693,386.570 455.363,386.849 455.543,395.556 465.887,395.315 " />
<polygon points="465.887,395.315 455.543,395.556 455.586,403.848 466.006,403.847 " />
<polygon points="455.586,403.848 445.331,403.900 445.291,412.171 455.533,412.130 " />
<polygon points="455.533,412.130 445.291,412.171 445.219,420.615 455.374,420.819 " />
<polygon points="455.374,420.819 445.219,420.615 445.060,430.022 455.110,430.362 " />
<polygon points="455.093,377.286 445.024,377.635 445.185,387.055 455.363,386.849 " />
<polygon points="455.363,386.849 445.185,387.055 445.288,395.616 455.543,395.556 " />
<polygon points="455.543,395.556 445.288,395.616 445.331,403.900 455.586,403.848 " />
<polygon points="445.331,403.900 435.182,403.839 435.190,411.977 445.291,412.171 " />
<polygon points="445.291,412.171 435.190,411.977 435.166,420.598 445.219,420.615 " />
<polygon points="445.219,420.615 435.166,420.598 435.139,429.810 445.060,430.022 " />
<polygon points="445.024,377.635 435.089,377.855 435.147,386.893 445.185,387.055 " />
<polygon points="445.185,387.055 435.147,386.893 435.080,395.516 445.288,395.616 " />
<polygon points="445.288,395.616 435.080,395.516 435.182,403.839 445.331,403.900 " />
<polygon points="435.182,403.839 425.050,403.814 425.057,412.031 435.190,411.977 " />
<polygon points="435.190,411.977 425.057,412.031 425.061,420.825 435.166,420.598 " />
<polygon points="435.166,420.598 425.061,420.825 425.210,429.969 435.139,429.810 " />
<polygon points="435.089,377.855 425.162,377.705 425.070,387.109 435.147,386.893 " />
<polygon points="435.147,386.893 425.070,387.109 425.020,395.632 435.080,395.516 " />
<polygon points="435.080,395.516 425.020,395.632 425.050,403.814 435.182,403.839 " />
<polygon points="425.050,403.814 414.794,403.842 414.785,412.134 425.057,412.031 " />
<polygon points="425.057,412.031 414.785,412.134 415.026,420.717 425.061,420.825 " />
<polygon points="425.061,420.825 415.026,420.717 415.145,430.238 425.210,429.969 " />
<polygon points="425.162,377.705 415.101,377.446 414.943,386.982 425.070,387.109 " />
<polygon points="425.070,387.109 414.943,386.982 414.859,395.623 425.020,395.632 " />
<polygon points="425.020,395.632 414.859,395.623 414.794,403.842 425.050,403.814 " />
<polygon points="414.794,403.842 404.548,403.849 404.630,412.111 414.785,412.134 " />
<polygon points="414.785,412.134 404.630,412.111 404.726,420.863 415.026,420.717 " />
<polygon points="415.026,420.717 404.726,420.863 404.899,430.564 415.145,430.238 " />
<polygon points="415.101,377.446 404.856,377.132 404.502,386.534 414.943,386.982 " />
<polygon points="414.943,386.982 404.502,386.534 404.614,395.584 414.859,395.623 " />
<polygon points="414.859,395.623 404.614,395.584 404.548,403.849 414.794,403.842 " />
<polygon points="404.548,403.849 394.233,403.858 394.227,412.306 404.630,412.111 " />
<polygon points="404.630,412.111 394.227,412.306 394.353,420.994 404.726,420.863 " />
<polygon points="404.726,420.863 394.353,420.994 394.436,430.881 404.899,430.564 " />
<polygon points="404.856,377.132 394.392,376.828 394.231,386.706 404.502,386.534 " />
<polygon points="404.502,386.534 394.231,386.706 394.181,395.540 404.614,395.584 " />
<polygon points="404.614,395.584 394.181,395.540 394.233,403.858 404.548,403.849 " />
<polygon points="394.233,403.858 383.888,403.873 383.912,412.239 394.227,412.306 " />
<polygon points="394.227,412.306 383.912,412.239 383.833,421.195 394.353,420.994 " />
<polygon points="394.353,420.994 383.833,421.195 383.985,430.712 394.436,430.881 " />
<polygon points="394.392,376.828 383.938,377.008 383.916,386.644 394.231,386.706 " />
<polygon points="394.231,386.706 383.916,386.644 383.878,395.496 394.181,395.540 " />
<polygon points="394.181,395.540 383.878,395.496 383.888,403.873 394.233,403.858 " />
<polygon points="383.888,403.873 373.485,403.900 373.563,412.370 383.912,412.239 " />
<polygon points="383.912,412.239 373.563,412.370 373.548,421.088 383.833,421.195 " />
<polygon points="383.833,421.195 373.548,421.088 373.630,430.893 383.985,430.712 " />
<polygon points="383.938,377.008 373.577,376.836 373.579,386.618 383.916,386.644 " />
<polygon points="383.916,386.644 373.579,386.618 373.462,395.453 383.878,395.496 " />
<polygon points="383.878,395.496 373.462,395.453 373.485,403.900 383.888,403.873 " />
<polygon points="373.485,403.900 363.019,403.872 363.059,412.252 373.563,412.370 " />
<polygon points="373.563,412.370 363.059,412.252 363.075,421.164 373.548,421.088 " />
<polygon points="373.548,421.088 363.075,421.164 363.109,431.129 373.630,430.893 " />
<polygon points="373.577,376.836 363.050,376.605 363.099,386.560 373.579,386.618 " />
<polygon points="373.579,386.618 363.099,386.560 362.931,395.381 373.462,395.453 " />
<polygon points="373.462,395.453 362.931,395.381 363.019,403.872 373.485,403.900 " />
<polygon points="363.019,403.872 352.531,403.848 352.571,412.326 363.059,412.252 " />
<polygon points="363.059,412.252 352.571,412.326 352.730,421.374 363.075,421.164 " />
<polygon points="363.075,421.164 352.730,421.374 352.600,430.942 363.109,431.129 " />
<polygon points="363.050,376.605 352.539,376.794 352.622,386.290 363.099,386.560 " />
<polygon points="363.099,386.560 352.622,386.290 352.518,395.412 362.931,395.381 " />
<polygon points="362.931,395.381 352.518,395.412 352.531,403.848 363.019,403.872 " />
<polygon points="352.531,403.848 342.062,403.888 342.117,412.300 352.571,412.326 " />
<polygon points="352.571,412.326 342.117,412.300 342.094,421.216 352.730,421.374 " />
<polygon points="352.730,421.374 342.094,421.216 342.106,431.150 352.600,430.942 " />
<polygon points="352.539,376.794 342.031,376.589 342.031,386.543 352.622,386.290 " />
<polygon points="352.622,386.290 342.031,386.543 342.039,395.476 352.518,395.412 " />
<polygon points="352.518,395.412 342.039,395.476 342.062,403.888 352.531,403.848 " />
<polygon points="342.062,403.888 331.587,403.914 331.587,412.375 342.117,412.300 " />
<polygon points="342.117,412.300 331.587,412.375 331.465,421.380 342.094,421.216 " />
<polygon points="342.094,421.216 331.465,421.380 331.618,430.955 342.106,431.150 " />
<polygon points="342.031,376.589 331.518,376.789 331.522,386.554 342.031,386.543 " />
<polygon points="342.031,386.543 331.522,386.554 331.493,395.425 342.039,395.476 " />
<polygon points="342.039,395.476 331.493,395.425 331.587,403.914 342.062,403.888 " />
<polygon points="331.587,403.914 321.088,403.922 321.181,412.462 331.587,412.375 " />
<polygon points="331.587,412.375 321.181,412.462 321.199,421.608 331.465,421.380 " />
<polygon points="331.465,421.380 321.199,421.608 321.159,431.153 331.618,430.955 " />
<polygon points="331.518,376.789 320.995,376.591 321.095,386.523 331.522,386.554 " />
<polygon points="331.522,386.554 321.095,386.523 321.041,395.353 331.493,395.425 " />
<polygon points="331.493,395.425 321.041,395.353 321.088,403.922 331.587,403.914 " />
<polygon points="321.088,403.922 310.562,403.968 310.636,412.452 321.181,412.462 " />
<polygon points="321.181,412.462 310.636,412.452 310.579,421.503 321.199,421.608 " />
<polygon points="321.199,421.608 310.579,421.503 310.720,430.969 321.159,431.153 " />
<polygon points="320.995,376.591 310.458,376.788 310.316,386.412 321.095,386.523 " />
<polygon points="321.095,386.523 310.316,386.412 310.517,395.509 321.041,395.353 " />
<polygon points="310.562,403.968 321.088,403.922 321.041,395.353 310.517,395.509 " />
</g>
</svg>